STARTFONT 2.1
FONT -Monotype-Plantin-Bold-R-Normal--50-360-100-100-P-319-iso8859-5
SIZE 36 100 100
FONTBOUNDINGBOX 64 56 -4 -11

STARTPROPERTIES 24
FOUNDRY "Monotype"
FAMILY_NAME "Plantin"
WEIGHT_NAME "Bold"
SLANT "R"
SETWIDTH_NAME "Normal"
ADD_STYLE_NAME ""
PIXEL_SIZE 50
POINT_SIZE 360
RESOLUTION_X 100
RESOLUTION_Y 100
SPACING "P"
AVERAGE_WIDTH 319
CHARSET_REGISTRY "iso8859"
CHARSET_ENCODING "5"
FACE_NAME "Plantin Bold ISO Latin Cyrillic"
_DEC_DEVICE_FONTNAMES "PS=plantin-b-latcyrillic"
COPYRIGHT "Copyright (c) 1993 Monotype Typography Ltd."
CAP_HEIGHT 40
X_HEIGHT 27
WEIGHT 10
QUAD_WIDTH 36
DEFAULT_CHAR 160
FONT_DESCENT 13
FONT_ASCENT 47
ENDPROPERTIES

CHARS 191

STARTCHAR space
ENCODING 32
SWIDTH 250 0
DWIDTH 13 0
BBX 0 0 0 0
BITMAP
ENDCHAR

STARTCHAR exclam
ENCODING 33
SWIDTH 344 0
DWIDTH 17 0
BBX 13 36 2 -1
BITMAP
1FC0
3FE0
3FE0
3FE0
3FE0
3FE0
1FC0
1FC0
1FC0
1FC0
1FC0
1FC0
0FC0
0F80
0F80
0F80
0F80
0F80
0F80
0700
0700
0700
0700
0000
0000
0000
0000
0F80
1FC0
3FE0
3FE0
3FE0
3FE0
3FE0
1FC0
0F80
ENDCHAR

STARTCHAR quotedbl
ENCODING 34
SWIDTH 552 0
DWIDTH 28 0
BBX 23 16 2 18
BITMAP
0E00E0
1F01F0
3F83F8
3F83F8
3F83F8
3F83F8
3F83F8
1F81F0
1F01F0
1F01F0
1F01F0
0E00E0
0E00E0
0E00E0
0E00E0
040040
ENDCHAR

STARTCHAR numbersign
ENCODING 35
SWIDTH 500 0
DWIDTH 25 0
BBX 26 34 0 0
BITMAP
00700E00
00701E00
00701C00
00701C00
00F01C00
00E01C00
00E03C00
00E03800
00E03800
01E03800
01C03800
7FFFFF00
7FFFFF00
7FFFFF00
03C07000
03807000
0380E000
0380E000
0780E000
0780E000
0700E000
7FFFFF00
7FFFFF00
7FFFFF00
0E01C000
0E03C000
0E038000
0E038000
1E038000
1C038000
1C078000
1C070000
1C070000
3C070000
ENDCHAR

STARTCHAR dollar
ENCODING 36
SWIDTH 521 0
DWIDTH 26 0
BBX 25 39 0 -4
BITMAP
000C0000
003E0000
01FFC000
07FFF000
0FCCF800
0F8C7C00
1F0C7E00
1F0C3E00
3F0C3E00
3F8C1C00
3F8C0000
3FCC0000
3FFC0000
1FFC0000
1FFE0000
0FFF8000
07FFC000
03FFF000
01FFF800
007FFC00
003FFC00
000FFE00
000FFE00
000DFF00
000CFF00
000C7F00
000C3F00
1C0C3F00
3E0C3F00
3E0C3E00
3F0C3E00
1F8C7C00
0FECF800
07FFF000
01FFC000
000C0000
000C0000
000C0000
000C0000
ENDCHAR

STARTCHAR percent
ENCODING 37
SWIDTH 927 0
DWIDTH 46 0
BBX 48 37 -1 -2
BITMAP
01F800007C00
07FE0000F800
0F9F0001F000
1F0F8001F000
3F0FC003E000
3F0FC007C000
3F0FE007C000
7F0FE00F8000
7F0FE00F8000
7F0FE01F0000
7F0FE03E0000
3F0FE03E0000
3F0FC07C0000
3F0FC0FC0000
1F0F80F80000
0F9F01F00000
07FE01F00000
01F803E00000
000007C01F80
000007C07FE0
00000F80F9F0
00001F81F0F8
00001F03F0FC
00003E03F0FC
00003E03F0FE
00007C07F0FE
0000FC07F0FE
0000F807F0FE
0001F007F0FE
0001F007F0FE
0003E003F0FC
0007C003F0FC
0007C003F0FC
000F8001F0F8
001F8000F9F0
001F00007FE0
003E00000F00
ENDCHAR

STARTCHAR ampersand
ENCODING 38
SWIDTH 781 0
DWIDTH 39 0
BBX 40 36 0 -1
BITMAP
0000F80000
0003FE0000
000FFF0000
001E1F8000
003E0FC000
007C07C000
007E07C000
00FE03C000
00FF03C000
00FF038000
00FF878000
007FDF0000
007FFC0000
003FF80000
001FF80FFC
001FFC0FFC
001FFE03F8
003FFE03F0
00FBFF01E0
01E1FF83C0
07C1FFC380
0F80FFE700
1F807FE600
1F803FFE00
3F801FFC00
3FC00FFC00
7FC00FFC00
7FE007FE00
7FE003FF00
7FF003FF00
3FF807FF80
3FFE0FFFC0
1FFFFC7FF0
0FFFF83FFC
07FFE01FFC
00FE0007FC
ENDCHAR

STARTCHAR quoteright
ENCODING 39
SWIDTH 344 0
DWIDTH 17 0
BBX 13 16 3 19
BITMAP
0F00
3F80
7FC0
7FE0
7FE0
7FE0
3FE0
1FE0
01E0
01E0
03E0
03C0
0F80
3F00
3E00
3000
ENDCHAR

STARTCHAR parenleft
ENCODING 40
SWIDTH 417 0
DWIDTH 21 0
BBX 19 44 3 -9
BITMAP
000100
000380
000F80
001F00
003E00
007C00
00F800
01F800
01F000
03E000
07E000
07C000
0FC000
0FC000
1F8000
1F8000
1F8000
1F8000
3F0000
3F0000
3F0000
3F0000
3F0000
3F0000
3F0000
3F0000
3F0000
1F8000
1F8000
1F8000
1F8000
0FC000
0FC000
07C000
07E000
03E000
01F000
01F800
00F800
007C00
003E00
001F00
000780
000380
ENDCHAR

STARTCHAR parenright
ENCODING 41
SWIDTH 417 0
DWIDTH 21 0
BBX 19 45 -1 -10
BITMAP
100000
380000
3E0000
1F0000
0F8000
07C000
03E000
01F000
01F000
00F800
00FC00
007C00
007E00
007E00
003F00
003F00
003F00
003F80
001F80
001F80
001F80
001F80
001F80
001F80
001F80
001F80
001F80
003F80
003F00
003F00
003F00
007E00
007E00
007C00
00FC00
00F800
01F000
01F000
03E000
07C000
0F8000
1F0000
3E0000
380000
100000
ENDCHAR

STARTCHAR asterisk
ENCODING 42
SWIDTH 510 0
DWIDTH 26 0
BBX 26 22 0 13
BITMAP
000C0000
001C0000
001C0000
001C0000
001E0000
003E0000
003E0000
3C3E1F00
3FFFFF00
3FFFFF00
1FFFFC00
07FFF800
01FFE000
00FFC000
00FFC000
01FFE000
01FFE000
03F3E000
03E1F000
03C0F000
07007800
02002000
ENDCHAR

STARTCHAR plus
ENCODING 43
SWIDTH 667 0
DWIDTH 33 0
BBX 31 27 1 3
BITMAP
0007C000
0007C000
0007C000
0007C000
0007C000
0007C000
0007C000
0007C000
0007C000
0007C000
0007C000
3FFFFFF8
3FFFFFF8
3FFFFFF8
3FFFFFF8
3FFFFFF8
0007C000
0007C000
0007C000
0007C000
0007C000
0007C000
0007C000
0007C000
0007C000
0007C000
0007C000
ENDCHAR

STARTCHAR comma
ENCODING 44
SWIDTH 344 0
DWIDTH 17 0
BBX 13 18 3 -9
BITMAP
0E00
3F80
7FC0
7FC0
7FE0
7FE0
7FE0
3FE0
07E0
01E0
01E0
01E0
03C0
03C0
0F80
7F00
7E00
7800
ENDCHAR

STARTCHAR minus
ENCODING 45
SWIDTH 667 0
DWIDTH 33 0
BBX 30 5 2 14
BITMAP
7FFFFFF0
7FFFFFF0
7FFFFFF0
7FFFFFF0
7FFFFFF0
ENDCHAR

STARTCHAR period
ENCODING 46
SWIDTH 344 0
DWIDTH 17 0
BBX 13 9 3 -1
BITMAP
0F80
1FC0
3FE0
3FE0
3FE0
3FE0
3FE0
1FC0
0F80
ENDCHAR

STARTCHAR slash
ENCODING 47
SWIDTH 281 0
DWIDTH 14 0
BBX 17 35 -1 -1
BITMAP
000E00
000E00
001C00
001C00
001C00
003800
003800
003800
007000
007000
007000
00F000
00E000
00E000
01E000
01C000
01C000
01C000
038000
038000
038000
070000
070000
070000
0E0000
0E0000
0E0000
1C0000
1C0000
1C0000
3C0000
380000
380000
380000
700000
ENDCHAR

STARTCHAR zero
ENCODING 48
SWIDTH 521 0
DWIDTH 26 0
BBX 27 34 -1 -1
BITMAP
003F8000
00FFE000
01F1F000
03E0F800
07C07C00
07C07C00
0FC07E00
0FC07E00
1F803F00
1F803F00
1F803F00
3F803F80
3F803F80
3F803F80
3F803F80
3F803F80
3F803F80
3F803F80
3F803F80
3F803F80
3F803F80
3F803F80
1F803F80
1F803F00
1F803F00
0FC03F00
0FC03E00
0FC07E00
07C07C00
03C07C00
03E0F800
01F1F000
007FE000
003F8000
ENDCHAR

STARTCHAR one
ENCODING 49
SWIDTH 521 0
DWIDTH 26 0
BBX 20 33 4 0
BITMAP
007800
00F800
03F800
0FF800
3FF800
7FF800
7FF800
07F800
03F800
03F800
03F800
03F800
03F800
03F800
03F800
03F800
03F800
03F800
03F800
03F800
03F800
03F800
03F800
03F800
03F800
03F800
03F800
03F800
03F800
03F800
0FFE00
7FFFC0
7FFFC0
ENDCHAR

STARTCHAR two
ENCODING 50
SWIDTH 521 0
DWIDTH 26 0
BBX 26 33 0 0
BITMAP
003F0000
00FFC000
03FFF000
07FFF800
0FFFF800
1E0FFC00
1803FC00
0001FC00
0001FC00
0000FC00
0000FC00
0000FC00
0000F800
0001F800
0001F000
0001F000
0003E000
0003C000
00078000
000F0000
000E0000
001C0000
00380000
00700000
00E00300
01C00700
03800E00
03FFFE00
07FFFE00
0FFFFC00
3FFFFC00
3FFFFC00
3FFFF800
ENDCHAR

STARTCHAR three
ENCODING 51
SWIDTH 521 0
DWIDTH 26 0
BBX 24 34 0 -1
BITMAP
00FF00
03FFC0
0FFFE0
1FFFF0
3E1FF8
780FF8
3007F8
0003F8
0003F8
0003F0
0003F0
0003E0
000780
000F00
001FC0
01FFE0
07FFF0
07FFF8
001FFC
0007FC
0001FE
0001FE
0000FE
0000FE
0000FE
0000FC
0000FC
0000F8
0001F8
1C01F0
3F03E0
3F8FC0
1FFF00
0FF800
ENDCHAR

STARTCHAR four
ENCODING 52
SWIDTH 521 0
DWIDTH 26 0
BBX 26 34 0 -1
BITMAP
0000F800
0000F800
0001F800
0003F800
0003F800
0007F800
000FF800
000DF800
0019F800
0031F800
0071F800
0061F800
00C1F800
01C1F800
0181F800
0301F800
0701F800
0601F800
0C01F800
1C01F800
3801F800
3FFFFF80
3FFFFF80
3FFFFF80
3FFFFF80
3FFFFF80
0001F800
0001F800
0001F800
0001F800
0001F800
0001F800
0001F800
0001F800
ENDCHAR

STARTCHAR five
ENCODING 53
SWIDTH 521 0
DWIDTH 26 0
BBX 23 35 2 -1
BITMAP
00001C
00FFF8
00FFF8
00FFF0
01FFF0
01FFE0
038000
030000
030000
060000
060000
0FE000
0FF800
1FFE00
1FFF00
1FFFC0
1FFFE0
03FFF0
00FFF0
003FF0
000FF8
0007F8
0003F8
0001F8
0000F8
0000F8
0000F8
0000F0
0000F0
0001E0
3803C0
3F8780
7FFF00
7FFC00
3FE000
ENDCHAR

STARTCHAR six
ENCODING 54
SWIDTH 521 0
DWIDTH 26 0
BBX 27 34 0 -1
BITMAP
00000C00
00007E00
0001FC00
0007F000
001FC000
003F8000
00FE0000
01FC0000
03F80000
03F00000
07F00000
0FE00000
0FE00000
1FE3C000
1FCFF800
1FFFFC00
3FFFFE00
3FE1FF00
3FC0FF00
3F807F80
3F807F80
3F807F80
3F803F80
3F803F80
3F803F80
1FC03F80
1FC03F80
1FC03F00
0FC03F00
07E07E00
03E07C00
01F9F800
00FFF000
003FC000
ENDCHAR

STARTCHAR seven
ENCODING 55
SWIDTH 521 0
DWIDTH 26 0
BBX 25 34 1 -1
BITMAP
0FFFFE00
0FFFFC00
0FFFFC00
1FFFFC00
1FFFF800
1FFFF800
18007800
30007000
30007000
0000F000
0000E000
0000E000
0000E000
0001C000
0001C000
0001C000
00038000
00038000
00038000
00070000
00070000
00070000
000E0000
000E0000
000E0000
001C0000
001C0000
001C0000
00380000
00380000
00380000
00700000
00700000
00700000
ENDCHAR

STARTCHAR eight
ENCODING 56
SWIDTH 521 0
DWIDTH 26 0
BBX 25 34 1 -1
BITMAP
00FF0000
03FFE000
0FE3F000
1F80F800
1F00F800
3F007C00
3F007C00
7F007C00
7F007C00
7F807800
3FC07800
3FE0F000
1FF9E000
1FFFC000
0FFF0000
07FF8000
03FFC000
01FFE000
01FFF000
03BFF800
0F1FFC00
1E0FFC00
3E03FE00
3C01FE00
3C01FE00
7C00FE00
7C00FE00
7C00FE00
3C00FC00
3E01FC00
1E01F800
0F87F000
07FFE000
01FF0000
ENDCHAR

STARTCHAR nine
ENCODING 57
SWIDTH 521 0
DWIDTH 26 0
BBX 27 34 -1 -1
BITMAP
003F8000
01FFE000
03F1F800
07E0FC00
0FC07E00
1FC07E00
1F807F00
3F807F00
3F803F00
3F803F80
3F803F80
3F803F80
3FC03F80
3FC03F80
3FC03F80
1FE03F80
1FF0FF80
0FFFFF80
07FFFF80
03FF7F00
00787F00
0000FF00
0000FE00
0000FC00
0001FC00
0003F800
0007F000
000FE000
001FC000
007F8000
00FE0000
03F80000
0FE00000
07000000
ENDCHAR

STARTCHAR colon
ENCODING 58
SWIDTH 344 0
DWIDTH 17 0
BBX 13 24 2 -1
BITMAP
0F80
1FC0
3FE0
3FE0
3FE0
3FE0
3FE0
1FC0
0F80
0000
0000
0000
0000
0000
0000
0F80
1FC0
3FE0
3FE0
3FE0
3FE0
3FE0
1FC0
0F80
ENDCHAR

STARTCHAR semicolon
ENCODING 59
SWIDTH 344 0
DWIDTH 17 0
BBX 13 32 3 -9
BITMAP
0F80
1FC0
3FE0
3FE0
3FE0
3FE0
3FE0
1FC0
0F80
0000
0000
0000
0000
0000
0E00
3F80
3FC0
7FC0
7FE0
7FE0
7FE0
3FE0
07E0
01E0
01E0
01E0
03C0
03C0
0780
7F00
7E00
7800
ENDCHAR

STARTCHAR less
ENCODING 60
SWIDTH 667 0
DWIDTH 33 0
BBX 30 27 2 3
BITMAP
00000010
000000F0
000003F0
00000FF0
00007FF0
0001FFF0
000FFF80
003FFE00
00FFF000
07FFC000
1FFF0000
7FF80000
7FE00000
7F000000
7FE00000
7FF80000
1FFF0000
07FFC000
01FFF000
003FFE00
000FFF80
0001FFF0
00007FF0
00001FF0
000003F0
000000F0
00000010
ENDCHAR

STARTCHAR equal
ENCODING 61
SWIDTH 667 0
DWIDTH 33 0
BBX 30 17 2 8
BITMAP
7FFFFFF0
7FFFFFF0
7FFFFFF0
7FFFFFF0
7FFFFFF0
00000000
00000000
00000000
00000000
00000000
00000000
00000000
7FFFFFF0
7FFFFFF0
7FFFFFF0
7FFFFFF0
7FFFFFF0
ENDCHAR

STARTCHAR greater
ENCODING 62
SWIDTH 667 0
DWIDTH 33 0
BBX 30 27 2 3
BITMAP
60000000
78000000
7E000000
7FC00000
7FF00000
7FFE0000
0FFF8000
03FFE000
007FFC00
001FFF00
0003FFE0
0000FFF0
00001FF0
000007F0
00001FF0
0000FFF0
0003FFE0
001FFF00
007FFC00
03FFE000
0FFF8000
7FFE0000
7FF00000
7FC00000
7E000000
78000000
60000000
ENDCHAR

STARTCHAR question
ENCODING 63
SWIDTH 458 0
DWIDTH 23 0
BBX 22 36 0 -1
BITMAP
1FE000
3FF800
7FFE00
7FFF00
7FC780
3E01C0
1800E0
0000F0
0000F0
0000F0
0001F8
0003F8
001FF8
01FFF8
03FFF8
03FFF0
03FFF0
01FFE0
01FFC0
01FE00
01C000
01C000
01C000
018000
000000
000000
000000
03E000
07F000
0FF800
0FF800
0FF800
0FF800
0FF800
07F000
03E000
ENDCHAR

STARTCHAR at
ENCODING 64
SWIDTH 927 0
DWIDTH 46 0
BBX 46 45 1 -11
BITMAP
000007F80000
0000FFFF8000
0003F001E000
000F80007000
001E00001800
007800000C00
00F000000600
01E000000300
03C000000100
038000000180
070003800080
0E000FEFC0C0
0E003E6F80C0
1C007C3F8040
1C00F83F8040
3801F83F8040
3801F03F0040
3803F03F0040
3003E03F0040
3007E03E0040
7007E07E0040
700FC07E00C0
700FC07E0080
700FC0FC0080
701FC0FC0180
701F81FC0100
301F83F80300
301F83F80600
301FC5F80400
381FDDF80C00
381FF9F81830
181FF0F86020
180FE0FFC020
0C07C03E0060
0E00000000C0
060000000080
070000000180
038000000300
01C000000600
00E000000C00
007000003800
001C00006000
000F0003C000
0003F01F0000
00003FF80000
ENDCHAR

STARTCHAR A
ENCODING 65
SWIDTH 781 0
DWIDTH 39 0
BBX 41 35 -1 0
BITMAP
0001FF800000
0000FF800000
0000FF800000
0000FFC00000
0000FFC00000
0001FFC00000
0001BFE00000
0001BFE00000
0003BFF00000
00031FF00000
00071FF00000
00070FF80000
00060FF80000
000E0FFC0000
000E07FC0000
000C07FC0000
001C07FE0000
001C03FE0000
003803FF0000
003FFFFF0000
003FFFFF0000
007FFFFF8000
007000FF8000
00E000FF8000
00E0007FC000
00E0007FC000
01C0007FE000
01C0003FE000
03C0003FE000
03C0003FF000
07C0003FF000
0FE0003FF800
3FF800FFFE00
7FF801FFFF00
7FF801FFFF00
ENDCHAR

STARTCHAR B
ENCODING 66
SWIDTH 781 0
DWIDTH 39 0
BBX 39 34 0 0
BITMAP
3FFFFFF800
3FFFFFFF00
0FFE03FFC0
07FE00FFE0
03FE007FE0
03FE003FF0
03FE003FF0
03FE001FF0
03FE001FF0
03FE001FF0
03FE001FF0
03FE003FE0
03FE003FC0
03FE007F80
03FE01FE00
03FFFFF000
03FFFFFC00
03FE03FF80
03FE007FC0
03FE003FE0
03FE001FF0
03FE001FF8
03FE001FF8
03FE000FF8
03FE000FF8
03FE000FF8
03FE000FF8
03FE001FF8
03FE001FF0
03FF003FF0
07FF007FE0
0FFFC1FFC0
3FFFFFFF00
3FFFFFFC00
ENDCHAR

STARTCHAR C
ENCODING 67
SWIDTH 802 0
DWIDTH 40 0
BBX 39 36 1 -1
BITMAP
0000FFF800
0007FFFF00
001FE0FFE0
007F801FF0
00FF000FF0
01FE0007F0
03FC0003F0
07F80001F0
07F80000F0
0FF00000F8
0FF0000078
1FF0000000
1FF0000000
1FE0000000
3FE0000000
3FE0000000
3FE0000000
3FE0000000
3FE0000000
3FE0000000
3FF0000000
3FF0000000
3FF0000000
3FF0000000
1FF0000078
1FF8000078
0FF8000078
0FF80000F8
07FC0001F8
03FE0001F8
01FE0003F8
00FF8007F8
007FC00FF8
001FF07FE0
0007FFFF80
0000FFF800
ENDCHAR

STARTCHAR D
ENCODING 68
SWIDTH 875 0
DWIDTH 44 0
BBX 43 34 0 0
BITMAP
3FFFFFF80000
3FFFFFFF0000
0FFE03FFC000
07FE007FE000
03FE001FF800
03FE000FF800
03FE0007FC00
03FE0007FE00
03FE0003FE00
03FE0003FF00
03FE0001FF00
03FE0001FF80
03FE0001FF80
03FE0000FF80
03FE0000FF80
03FE0000FF80
03FE0000FF80
03FE0000FF80
03FE0000FF80
03FE0000FF80
03FE0000FF80
03FE0000FF80
03FE0001FF00
03FE0001FF00
03FE0001FE00
03FE0003FE00
03FE0003FC00
03FE0007FC00
03FE0007F800
03FF000FF000
07FF003FC000
0FFFC0FF8000
3FFFFFFE0000
3FFFFFF00000
ENDCHAR

STARTCHAR E
ENCODING 69
SWIDTH 750 0
DWIDTH 38 0
BBX 38 34 0 0
BITMAP
3FFFFFFFC0
3FFFFFFFC0
0FFE007FC0
07FE000FC0
03FE0007C0
03FE0003C0
03FE0001C0
03FE000000
03FE000000
03FE000000
03FE000000
03FE001E00
03FE001E00
03FE003E00
03FE00FE00
03FFFFFE00
03FFFFFE00
03FE00FE00
03FE003E00
03FE001E00
03FE001E00
03FE001E00
03FE000000
03FE000000
03FE000000
03FE000000
03FE000078
03FE0000F0
03FE0001F0
03FE0007F0
07FF000FF0
0FFFC07FF0
3FFFFFFFE0
3FFFFFFFE0
ENDCHAR

STARTCHAR F
ENCODING 70
SWIDTH 687 0
DWIDTH 34 0
BBX 35 34 0 0
BITMAP
3FFFFFFFC0
3FFFFFFFC0
0FFE007FC0
07FE001FC0
03FE000FC0
03FE0007C0
03FE0003C0
03FE000000
03FE000000
03FE000000
03FE000000
03FE003C00
03FE003C00
03FE003C00
03FE007C00
03FE01FC00
03FFFFFC00
03FFFFFC00
03FE01FC00
03FE00FC00
03FE007C00
03FE003C00
03FE003C00
03FE000000
03FE000000
03FE000000
03FE000000
03FE000000
03FE000000
03FE000000
07FF000000
0FFF800000
3FFFF00000
3FFFF00000
ENDCHAR

STARTCHAR G
ENCODING 71
SWIDTH 844 0
DWIDTH 42 0
BBX 41 36 1 -1
BITMAP
0001FFF80000
000FFFFF0000
003FC0FFC000
007F003FE000
01FE000FE000
03FC0007E000
07F80003E000
07F80001E000
0FF00001F000
1FF00000F000
1FF00000F000
3FE000000000
3FE000000000
3FE000000000
3FE000000000
7FE000000000
7FE000000000
7FE000000000
7FE001FFFF00
7FE001FFFF00
7FE0007FFC00
7FE0003FF800
7FE0001FF000
3FE0001FF000
3FF0001FF000
3FF0001FF000
1FF0001FF000
1FF8001FF000
0FF8001FF000
07FC001FF000
03FE001FF000
01FF001FF000
00FF801FF000
007FF07FF000
000FFFFF8000
0001FFF80000
ENDCHAR

STARTCHAR H
ENCODING 72
SWIDTH 875 0
DWIDTH 44 0
BBX 44 34 0 0
BITMAP
7FFFE07FFFE0
7FFFE07FFFE0
0FFF801FFF00
07FF000FFE00
03FE0007FC00
03FE0007FC00
03FE0007FC00
03FE0007FC00
03FE0007FC00
03FE0007FC00
03FE0007FC00
03FE0007FC00
03FE0007FC00
03FE0007FC00
03FE0007FC00
03FFFFFFFC00
03FFFFFFFC00
03FFFFFFFC00
03FE0007FC00
03FE0007FC00
03FE0007FC00
03FE0007FC00
03FE0007FC00
03FE0007FC00
03FE0007FC00
03FE0007FC00
03FE0007FC00
03FE0007FC00
03FE0007FC00
03FE0007FC00
07FF000FFE00
0FFF801FFF00
7FFFE07FFFE0
7FFFE07FFFE0
ENDCHAR

STARTCHAR I
ENCODING 73
SWIDTH 406 0
DWIDTH 20 0
BBX 21 34 0 0
BITMAP
3FFFE0
3FFFE0
0FFF80
07FF00
03FE00
03FE00
03FE00
03FE00
03FE00
03FE00
03FE00
03FE00
03FE00
03FE00
03FE00
03FE00
03FE00
03FE00
03FE00
03FE00
03FE00
03FE00
03FE00
03FE00
03FE00
03FE00
03FE00
03FE00
03FE00
03FE00
07FF00
0FFF80
3FFFE0
3FFFE0
ENDCHAR

STARTCHAR J
ENCODING 74
SWIDTH 406 0
DWIDTH 20 0
BBX 25 44 -4 -10
BITMAP
03FFFE00
03FFFE00
00FFF800
007FF000
003FE000
003FE000
003FE000
003FE000
003FE000
003FE000
003FE000
003FE000
003FE000
003FE000
003FE000
003FE000
003FE000
003FE000
003FE000
003FE000
003FE000
003FE000
003FE000
003FE000
003FE000
003FE000
003FE000
003FE000
003FE000
003FE000
003FE000
003FE000
003FE000
003FE000
003FC000
003FC000
003FC000
1C3F8000
3E3F8000
7E3F0000
7F7E0000
3FFC0000
1FF80000
07800000
ENDCHAR

STARTCHAR K
ENCODING 75
SWIDTH 781 0
DWIDTH 39 0
BBX 41 34 0 0
BITMAP
3FFFE0FFFC00
3FFFE0FFFC00
0FFF807FF000
07FF003FC000
03FE001F0000
03FE003E0000
03FE007C0000
03FE00700000
03FE00E00000
03FE03C00000
03FE07800000
03FE0F000000
03FE1E000000
03FE7C000000
03FEFE000000
03FFFF000000
03FFFF000000
03FFFF800000
03FFFFC00000
03FEFFE00000
03FE7FF00000
03FE3FF80000
03FE3FFC0000
03FE1FFC0000
03FE0FFE0000
03FE07FF0000
03FE03FF8000
03FE01FFC000
03FE00FFE000
03FE00FFF000
07FF007FF800
0FFF803FFE00
3FFFE01FFF00
3FFFE007FF00
ENDCHAR

STARTCHAR L
ENCODING 76
SWIDTH 687 0
DWIDTH 34 0
BBX 36 34 0 0
BITMAP
3FFFE00000
3FFFE00000
0FFF800000
07FF000000
03FE000000
03FE000000
03FE000000
03FE000000
03FE000000
03FE000000
03FE000000
03FE000000
03FE000000
03FE000000
03FE000000
03FE000000
03FE000000
03FE000000
03FE000000
03FE000000
03FE000000
03FE000000
03FE000000
03FE000000
03FE000000
03FE000000
03FE0003C0
03FE0007C0
03FE000FC0
03FF001F80
07FF007F80
0FFFC3FF80
3FFFFFFF80
3FFFFFFF80
ENDCHAR

STARTCHAR M
ENCODING 77
SWIDTH 1010 0
DWIDTH 51 0
BBX 52 34 -1 0
BITMAP
07FFC0003FFE00
07FFC0003FFE00
01FFC0003FF800
00FFC0003FE000
007FC0003FE000
007FE0007FE000
007FE0007FE000
007FE0007FE000
00FFF000FFE000
00FFF000DFF000
00FFF801DFF000
00CFF801DFF000
00CFFC039FF000
01C7FC039FF000
01C7FE070FF000
01C7FE070FF800
01C3FE0E0FF800
0181FF0E0FF800
0181FF1C0FF800
0381FF9C0FF800
0380FFB807F800
0380FFF807FC00
03007FF007FC00
03007FF007FC00
03003FF007FC00
07003FE007FC00
07001FE007FC00
07001FC007FE00
07001FC007FE00
0F000FC007FE00
0F800F8007FF00
1FC00F801FFF80
7FF007807FFFE0
7FF007007FFFE0
ENDCHAR

STARTCHAR N
ENCODING 78
SWIDTH 792 0
DWIDTH 40 0
BBX 41 35 -1 -1
BITMAP
3FFC001FFF00
3FFE001FFF00
1FFF0007FE00
07FF8001F000
03FFC000F000
01FFE000E000
01FFF000E000
01FFF800E000
01BFFC00E000
019FFC00E000
018FFE006000
018FFF006000
0187FF806000
0183FFC06000
0181FFE06000
0180FFF06000
01807FF86000
01803FF86000
01801FFC6000
01800FFE6000
01800FFF6000
018007FFE000
018003FFE000
01C001FFE000
01C000FFE000
01C0007FF000
01C0003FF000
01C0001FF000
01C0001FF000
03E0000FF000
03E00007F000
0FF80003F000
3FFE0001F000
3FFE0000F000
000000007000
ENDCHAR

STARTCHAR O
ENCODING 79
SWIDTH 875 0
DWIDTH 44 0
BBX 41 36 1 -1
BITMAP
00007F000000
0007FFF00000
001FFFFE0000
007F80FF8000
00FE007FC000
01FC003FE000
03F8001FF000
07F8000FF800
0FF0000FF800
0FF00007FC00
1FF00007FE00
1FE00007FE00
3FE00003FE00
3FE00003FF00
3FE00003FF00
7FE00003FF00
7FE00003FF00
7FE00003FF00
7FE00003FF00
7FE00003FF00
7FE00003FF00
7FE00003FF00
7FE00003FE00
3FE00003FE00
3FF00003FE00
3FF00003FC00
1FF00007FC00
1FF80007F800
0FF80007F800
07FC000FF000
03FC001FE000
01FE003FC000
00FF807F8000
007FE1FE0000
000FFFF80000
0001FFC00000
ENDCHAR

STARTCHAR P
ENCODING 80
SWIDTH 729 0
DWIDTH 36 0
BBX 38 34 0 0
BITMAP
3FFFFFF800
3FFFFFFF00
0FFE03FF80
07FE00FFC0
03FE007FE0
03FE003FE0
03FE003FF0
03FE003FF0
03FE001FF0
03FE001FF0
03FE001FF0
03FE001FF0
03FE003FF0
03FE003FE0
03FE007FE0
03FE00FFC0
03FE3FFF00
03FE3FFC00
03FE1FC000
03FE000000
03FE000000
03FE000000
03FE000000
03FE000000
03FE000000
03FE000000
03FE000000
03FE000000
03FE000000
03FE000000
07FF000000
0FFF800000
3FFFF00000
3FFFF00000
ENDCHAR

STARTCHAR Q
ENCODING 81
SWIDTH 865 0
DWIDTH 43 0
BBX 42 45 1 -10
BITMAP
00007F000000
0007FFF00000
001FFFFE0000
007F80FF8000
00FE007FC000
01FC003FE000
03F8001FF000
07F8000FF800
0FF0000FFC00
1FF00007FC00
1FF00007FE00
3FE00007FE00
3FE00003FE00
3FE00003FF00
3FE00003FF00
7FE00003FF00
7FE00003FF00
7FE00003FF00
7FE00003FF00
7FE00003FF00
7FE00003FF00
7FE00003FF00
3FE00003FE00
3FF00003FE00
3FF00003FE00
3FF00003FC00
1FF00007FC00
0FF80007F800
0FF8000FF000
07FC000FE000
03FE001FE000
01FF003F8000
00FF80FF0000
003FFFFC0000
0007FFF00000
0001FFF80000
0000FFFF0000
00003FFFC000
00000FFFFC00
000003FFFF80
000000FFFF80
0000003FFF80
00000007FF80
00000000FF80
000000001F80
ENDCHAR

STARTCHAR R
ENCODING 82
SWIDTH 771 0
DWIDTH 39 0
BBX 41 34 0 0
BITMAP
3FFFFFF80000
3FFFFFFE0000
0FFE07FF0000
07FE01FF8000
03FE00FFC000
03FE007FE000
03FE007FE000
03FE003FE000
03FE003FE000
03FE003FE000
03FE003FE000
03FE003FE000
03FE007FC000
03FE007FC000
03FE00FF8000
03FE01FF0000
03FE07FC0000
03FFFFF00000
03FFFFE00000
03FE3FF00000
03FE3FF80000
03FE1FFC0000
03FE0FFC0000
03FE07FE0000
03FE07FF0000
03FE03FF8000
03FE01FF8000
03FE00FFC000
03FE00FFE000
03FE007FF000
07FF003FF800
0FFF803FFC00
3FFFE01FFE00
3FFFE00FFE00
ENDCHAR

STARTCHAR S
ENCODING 83
SWIDTH 656 0
DWIDTH 33 0
BBX 31 36 1 -1
BITMAP
003FF800
00FFFF80
03F87FE0
07F00FF0
0FE007F0
1FC003F0
1FC001F0
3FC001F0
3FE000F0
3FE000F0
3FF80000
3FFC0000
3FFF0000
1FFFC000
1FFFF000
0FFFFC00
07FFFF00
03FFFF80
00FFFFE0
007FFFF0
001FFFF0
0003FFF8
0000FFF8
00003FFC
00001FFC
3C000FFC
3E0007FC
3E0007FC
3E0007F8
3F0007F8
3F8007F8
3FC007F0
3FE00FE0
3FF83FC0
07FFFF00
007FFC00
ENDCHAR

STARTCHAR T
ENCODING 84
SWIDTH 740 0
DWIDTH 37 0
BBX 37 34 0 0
BITMAP
7FFFFFFFF0
7FFFFFFFF0
7FC3FE1FF0
7F03FE07F0
7E03FE03F0
7C03FE01F0
7803FE00F0
0003FE0000
0003FE0000
0003FE0000
0003FE0000
0003FE0000
0003FE0000
0003FE0000
0003FE0000
0003FE0000
0003FE0000
0003FE0000
0003FE0000
0003FE0000
0003FE0000
0003FE0000
0003FE0000
0003FE0000
0003FE0000
0003FE0000
0003FE0000
0003FE0000
0003FE0000
0003FE0000
0007FF0000
000FFF8000
003FFFE000
003FFFE000
ENDCHAR

STARTCHAR U
ENCODING 85
SWIDTH 833 0
DWIDTH 42 0
BBX 43 35 0 -1
BITMAP
3FFFF007FF80
3FFFF007FF80
0FFF8001FF00
07FF00007C00
03FE00003800
03FE00003800
03FE00003800
03FE00003800
03FE00003800
03FE00003800
03FE00003800
03FE00003800
03FE00003800
03FE00003800
03FE00003800
03FE00003800
03FE00003800
03FE00003800
03FE00003800
03FE00003800
03FE00003800
03FE00003800
03FE00003800
03FE00003800
03FE00003800
01FE00007800
01FF00007000
01FF0000F000
01FF8000F000
00FFC003E000
007FF00FC000
003FFFFF8000
001FFFFF0000
0007FFFC0000
0000FFE00000
ENDCHAR

STARTCHAR V
ENCODING 86
SWIDTH 729 0
DWIDTH 36 0
BBX 38 35 -1 -1
BITMAP
7FFF803FF8
7FFF803FF8
3FFF001FF0
0FFC0007E0
0FFC0007C0
07FC000780
07FE000780
03FE000700
03FF000700
01FF000600
01FF000E00
00FF800E00
00FF800C00
00FFC01C00
007FC01800
007FE03800
003FE03000
003FF07000
001FF06000
001FF86000
000FF8E000
000FF8C000
000FFDC000
0007FD8000
0007FF8000
0003FF0000
0003FF0000
0001FF0000
0001FE0000
0000FE0000
0000FE0000
0000FC0000
00007C0000
00007C0000
0000780000
ENDCHAR

STARTCHAR W
ENCODING 87
SWIDTH 1031 0
DWIDTH 52 0
BBX 53 35 -1 -1
BITMAP
7FFF0FFFE07FE0
7FFF0FFFE07FE0
3FFE0FFFC03FC0
1FF803FF000F80
0FF801FF000F00
0FFC01FF000F00
07FC00FF800E00
07FC00FF800E00
03FE00FF800E00
03FE007FC00C00
03FE007FC00C00
01FF007FC01C00
01FF00FFE01800
01FF00FFE01800
00FF80DFF03800
00FF81DFF03800
00FF819FF03000
007FC18FF87000
007FC38FF87000
007FC307F86000
003FE707FCE000
003FE707FCE000
001FE603FCC000
001FFE03FFC000
001FFE01FF8000
000FFC01FF8000
000FFC01FF8000
000FF800FF0000
0007F800FF0000
0007F800FF0000
0007F0007F0000
0003F0007E0000
0003F0007E0000
0003E0003E0000
0001E0003C0000
ENDCHAR

STARTCHAR X
ENCODING 88
SWIDTH 781 0
DWIDTH 39 0
BBX 41 34 -1 0
BITMAP
7FFFF87FF800
7FFFF87FF800
1FFFE03FF000
07FF800FC000
03FF800F8000
03FF800F0000
01FFC01E0000
00FFE03C0000
007FE0780000
007FF0700000
003FF8E00000
001FFDC00000
000FFF800000
000FFF000000
0007FF000000
0003FF800000
0001FF800000
0001FFC00000
0000FFE00000
0000FFF00000
0001FFF80000
0003FFF80000
00079FFC0000
00070FFE0000
000E07FF0000
001C03FF0000
003801FF8000
007801FFC000
00F000FFE000
01F000FFE000
03F800FFF000
0FFC01FFFC00
3FFE0FFFFF00
3FFE0FFFFF00
ENDCHAR

STARTCHAR Y
ENCODING 89
SWIDTH 729 0
DWIDTH 36 0
BBX 38 34 0 0
BITMAP
7FFFE07FF0
7FFFE07FF0
3FFF803FE0
0FFE000FC0
07FE000F80
03FE000F00
03FF000E00
01FF000E00
01FF801C00
00FF803800
00FFC03800
007FC07000
007FE07000
003FE0E000
003FF0C000
001FF9C000
001FF98000
000FFF8000
000FFF0000
0007FF0000
0003FE0000
0003FE0000
0003FE0000
0003FE0000
0003FE0000
0003FE0000
0003FE0000
0003FE0000
0003FE0000
0003FE0000
0007FF0000
000FFF8000
007FFFF000
007FFFF000
ENDCHAR

STARTCHAR Z
ENCODING 90
SWIDTH 687 0
DWIDTH 34 0
BBX 34 34 0 0
BITMAP
1FFFFFFF00
1FFFFFFF00
1FF007FE00
1FC00FFE00
1F800FFC00
1F001FF800
1E003FF800
00003FF000
00007FE000
0000FFE000
0000FFC000
0001FF8000
0003FF8000
0003FF0000
0007FE0000
0007FE0000
000FFC0000
001FF80000
001FF80000
003FF00000
007FE00000
007FE00000
00FFC00000
01FF800000
01FF800000
03FF000000
07FF000780
07FE000F00
0FFC001F00
1FFC003F00
1FF800FF00
3FF003FF00
3FFFFFFE00
3FFFFFFE00
ENDCHAR

STARTCHAR bracketleft
ENCODING 91
SWIDTH 396 0
DWIDTH 20 0
BBX 17 43 2 -9
BITMAP
3FFE00
3FFE00
3FC000
3FC000
3F8000
3F8000
3F8000
3F8000
3F8000
3F8000
3F8000
3F8000
3F8000
3F8000
3F8000
3F8000
3F8000
3F8000
3F8000
3F8000
3F8000
3F8000
3F8000
3F8000
3F8000
3F8000
3F8000
3F8000
3F8000
3F8000
3F8000
3F8000
3F8000
3F8000
3F8000
3F8000
3F8000
3F8000
3F8000
3F8000
3FE000
3FFE00
3FFE00
ENDCHAR

STARTCHAR backslash
ENCODING 92
SWIDTH 281 0
DWIDTH 14 0
BBX 17 35 -1 -1
BITMAP
700000
380000
380000
380000
3C0000
1C0000
1C0000
1E0000
0E0000
0E0000
0E0000
070000
070000
070000
038000
038000
038000
01C000
01C000
01C000
01E000
00E000
00E000
00F000
007000
007000
007800
003800
003800
003800
001C00
001C00
001C00
000E00
000E00
ENDCHAR

STARTCHAR bracketright
ENCODING 93
SWIDTH 396 0
DWIDTH 20 0
BBX 17 43 1 -9
BITMAP
3FFE00
3FFE00
01FE00
00FE00
00FE00
00FE00
00FE00
00FE00
00FE00
00FE00
00FE00
00FE00
00FE00
00FE00
00FE00
00FE00
00FE00
00FE00
00FE00
00FE00
00FE00
00FE00
00FE00
00FE00
00FE00
00FE00
00FE00
00FE00
00FE00
00FE00
00FE00
00FE00
00FE00
00FE00
00FE00
00FE00
00FE00
00FE00
00FE00
00FE00
01FE00
3FFE00
3FFE00
ENDCHAR

STARTCHAR asciicircum
ENCODING 94
SWIDTH 583 0
DWIDTH 29 0
BBX 25 18 2 16
BITMAP
000C0000
001C0000
003E0000
003F0000
007F0000
00778000
00F78000
00E3C000
01E3C000
03C1E000
0381F000
0780F000
07007800
0F007800
0E003C00
1E003C00
3C001E00
3C001E00
ENDCHAR

STARTCHAR underscore
ENCODING 95
SWIDTH 500 0
DWIDTH 25 0
BBX 29 3 -2 -9
BITMAP
3FFFFFE0
3FFFFFE0
3FFFFFE0
ENDCHAR

STARTCHAR quoteleft
ENCODING 96
SWIDTH 344 0
DWIDTH 17 0
BBX 13 16 2 19
BITMAP
0060
03E0
07E0
0F80
1E00
1E00
3C00
3C00
3FC0
3FE0
3FF0
3FF0
1FF0
1FF0
0FE0
0380
ENDCHAR

STARTCHAR a
ENCODING 97
SWIDTH 562 0
DWIDTH 28 0
BBX 28 24 1 -1
BITMAP
003FC000
03FFF800
0FFFFC00
1FC1FE00
3F80FE00
3F80FE00
3F80FE00
3F80FE00
3E00FE00
1000FE00
000FFE00
007FFE00
03FCFE00
0FE0FE00
1FC0FE00
3F80FE00
3F80FE00
7F80FE00
7F81FF40
7FC3FFC0
3FFFFFE0
3FFE7FC0
1FF87F80
03E01C00
ENDCHAR

STARTCHAR b
ENCODING 98
SWIDTH 604 0
DWIDTH 30 0
BBX 31 36 -2 -1
BITMAP
00100000
01F00000
0FF00000
7FF00000
7FF00000
1FF00000
0FF00000
07F00000
07F00000
07F00000
07F00000
07F00000
07F07E00
07F1FF80
07F3FFC0
07F7FFE0
07FFFFF0
07FC3FF8
07F00FF8
07F007F8
07F007FC
07F003FC
07F003FC
07F003FC
07F003FC
07F003FC
07F003FC
07F003F8
07F003F8
07F003F0
07F807F0
07F807E0
07FC0FC0
03FE3F80
00FFFF00
003FF800
ENDCHAR

STARTCHAR c
ENCODING 99
SWIDTH 521 0
DWIDTH 26 0
BBX 25 24 1 -1
BITMAP
003FE000
01FFF800
07E3FC00
0FC1FE00
0F80FE00
1F80FE00
3F007E00
3F007C00
3F003800
7F000000
7F000000
7F000000
7F800000
7F800000
7F800000
7FC00000
3FE00400
3FF00E00
1FFC3E00
1FFFFC00
0FFFFC00
07FFF000
03FFE000
00FF0000
ENDCHAR

STARTCHAR d
ENCODING 100
SWIDTH 615 0
DWIDTH 31 0
BBX 31 36 0 -1
BITMAP
000001C0
00003FC0
0001FFC0
0001FFC0
0000FFC0
00003FC0
00001FC0
00001FC0
00001FC0
00001FC0
00001FC0
00001FC0
007FDFC0
01FFFFC0
03F8FFC0
07E07FC0
0FE03FC0
1FC03FC0
1FC01FC0
3F801FC0
3F801FC0
7F801FC0
7F801FC0
7F801FC0
7F801FC0
7F801FC0
7FC01FC0
3FC01FC0
3FE01FC0
3FE01FC0
1FF87FC0
1FFFFFE0
0FFFDFFC
07FF9FFC
03FE1FFC
00781E00
ENDCHAR

STARTCHAR e
ENCODING 101
SWIDTH 521 0
DWIDTH 26 0
BBX 26 24 0 -1
BITMAP
007FC000
01FFF000
03E3F800
07C0FC00
0F80FE00
0F807F00
1F807F00
1F807F00
3FFFFF00
3FFFFF80
3F800000
3F800000
3F800000
3FC00000
3FC00000
3FE00000
3FF00200
1FF80700
1FFE3F00
0FFFFE00
07FFFC00
03FFF800
01FFE000
007F8000
ENDCHAR

STARTCHAR f
ENCODING 102
SWIDTH 354 0
DWIDTH 18 0
BBX 26 35 0 0
BITMAP
0003F000
001FFE00
007FFF00
00F9FF00
01F0FF00
01F07F00
03F03E00
03F01800
07F00000
07F00000
07F00000
0FF00000
7FFF8000
7FFF8000
7FFF8000
07F00000
07F00000
07F00000
07F00000
07F00000
07F00000
07F00000
07F00000
07F00000
07F00000
07F00000
07F00000
07F00000
07F00000
07F00000
07F00000
0FF80000
1FFC0000
3FFF8000
3FFF8000
ENDCHAR

STARTCHAR g
ENCODING 103
SWIDTH 552 0
DWIDTH 28 0
BBX 29 32 0 -9
BITMAP
007FFFF0
03FFFFF0
07F1FFF0
0FE0FFF0
0FC07FF0
1FC07F00
1FC07F00
1FC07F00
1FC07F00
1FC07F00
1FE07E00
0FE0FE00
07F1FC00
03FFF000
00FFC000
03800000
07000000
0F000000
1FFFFC00
1FFFFF00
1FFFFF80
1FFFFFC0
0FFFFFC0
07FFFFC0
0F000FC0
1E0003C0
3C0003C0
3C000780
3E000F00
3F807E00
0FFFFC00
03FFE000
ENDCHAR

STARTCHAR h
ENCODING 104
SWIDTH 625 0
DWIDTH 31 0
BBX 32 35 0 0
BITMAP
00300000
01F00000
0FF00000
7FF00000
7FF00000
1FF00000
0FF00000
07F00000
07F00000
07F00000
07F00000
07F00000
07F07E00
07F1FF80
07F3FFC0
07F7FFE0
07FFFFE0
07FC3FE0
07F01FE0
07F00FE0
07F00FE0
07F00FE0
07F00FE0
07F00FE0
07F00FE0
07F00FE0
07F00FE0
07F00FE0
07F00FE0
07F00FE0
07F00FE0
0FF81FF0
1FFC3FFC
7FFE7FFC
7FFE7FFC
ENDCHAR

STARTCHAR i
ENCODING 105
SWIDTH 333 0
DWIDTH 17 0
BBX 18 35 -1 0
BITMAP
01C000
07F000
07F000
0FF800
0FF800
0FF800
07F000
07F000
01C000
000000
000000
000000
007800
03F800
3FF800
3FF800
1FF800
0FF800
03F800
03F800
03F800
03F800
03F800
03F800
03F800
03F800
03F800
03F800
03F800
03F800
03F800
07FC00
0FFE00
3FFF80
3FFF80
ENDCHAR

STARTCHAR j
ENCODING 106
SWIDTH 313 0
DWIDTH 16 0
BBX 15 44 -1 -9
BITMAP
00E0
03F8
03F8
07FC
07FC
07FC
03F8
01F8
00E0
0000
0000
0000
0078
07F8
3FF8
3FF8
1FF8
07F8
03F8
03F8
03F8
03F8
03F8
03F8
03F8
03F8
03F8
03F8
03F8
03F8
03F8
03F8
03F8
03F8
03F8
03F0
07F0
07E0
0FC0
1F80
3F00
7E00
3C00
3000
ENDCHAR

STARTCHAR k
ENCODING 107
SWIDTH 552 0
DWIDTH 28 0
BBX 30 35 -1 0
BITMAP
00F00000
07F00000
7FF00000
7FF00000
3FF00000
0FF00000
07F00000
07F00000
07F00000
07F00000
07F00000
07F00000
07F1FFE0
07F1FFE0
07F0FF80
07F07E00
07F07800
07F0F000
07F0E000
07F1C000
07F3C000
07F7E000
07FFF000
07FFF800
07F7FC00
07F3FE00
07F3FF00
07F1FF80
07F0FFC0
07F07FE0
07F83FF0
0FF81FF0
3FFE0FF0
7FFE07F0
7FFE01F0
ENDCHAR

STARTCHAR l
ENCODING 108
SWIDTH 312 0
DWIDTH 16 0
BBX 18 35 -1 0
BITMAP
001800
00F800
0FF800
3FF800
3FF800
1FF800
07F800
03F800
03F800
03F800
03F800
03F800
03F800
03F800
03F800
03F800
03F800
03F800
03F800
03F800
03F800
03F800
03F800
03F800
03F800
03F800
03F800
03F800
03F800
03F800
03F800
07FC00
0FFE00
3FFF80
3FFF80
ENDCHAR

STARTCHAR m
ENCODING 109
SWIDTH 979 0
DWIDTH 49 0
BBX 51 23 -1 0
BITMAP
00381F000F8000
03F87FC07FE000
1FF9FFE1FFF000
3FFBFFF3FFF800
3FFFFFFFFFFC00
0FFE07FE07FC00
07F803FC03FC00
03F803F801FC00
03F803F801FC00
03F803F801FC00
03F803F801FC00
03F803F801FC00
03F803F801FC00
03F803F801FC00
03F803F801FC00
03F803F801FC00
03F803F801FC00
03F803F801FC00
03F803F801FC00
07FC07FC03FE00
0FFE0FFE07FF00
1FFF9FFF8FFFC0
1FFF9FFF8FFFC0
ENDCHAR

STARTCHAR n
ENCODING 110
SWIDTH 625 0
DWIDTH 31 0
BBX 32 23 0 0
BITMAP
00703C00
03F1FF00
1FF3FFC0
7FF7FFC0
3FFFFFE0
1FF81FE0
0FF00FE0
07F00FE0
07F00FE0
07F00FE0
07F00FE0
07F00FE0
07F00FE0
07F00FE0
07F00FE0
07F00FE0
07F00FE0
07F00FE0
07F00FE0
0FF81FF0
1FFC3FFC
7FFE7FFC
7FFE7FFC
ENDCHAR

STARTCHAR o
ENCODING 111
SWIDTH 573 0
DWIDTH 29 0
BBX 27 24 1 -1
BITMAP
007FC000
01FFF000
03F1FC00
0FC0FE00
0FC0FF00
1F807F00
3F807F80
3F803F80
3F803FC0
7F803FC0
7F803FC0
7F803FC0
7F803FC0
7F803FC0
7F803FC0
7F803F80
3F803F80
3FC03F80
1FC03F00
1FC07F00
0FE07E00
07F1FC00
01FFF000
007FC000
ENDCHAR

STARTCHAR p
ENCODING 112
SWIDTH 615 0
DWIDTH 31 0
BBX 31 32 -1 -9
BITMAP
00F07E00
07F1FF80
3FF7FFC0
7FFFFFE0
3FFFFFF0
1FFC3FF8
0FF00FF8
07F00FF8
07F007FC
07F003FC
07F003FC
07F003FC
07F003FC
07F003FC
07F003FC
07F003F8
07F003F8
07F003F0
07F807F0
07F80FE0
07FC0FC0
07FE3F80
07FFFE00
07FFF800
07F00000
07F00000
07F00000
07F00000
0FF80000
1FFC0000
7FFF0000
7FFF0000
ENDCHAR

STARTCHAR q
ENCODING 113
SWIDTH 615 0
DWIDTH 31 0
BBX 31 32 1 -9
BITMAP
003FF1C0
01FFFFC0
03F8FFC0
07E07FC0
0FC03FC0
1FC01FC0
1F801FC0
3F801FC0
3F801FC0
3F801FC0
7F801FC0
7F801FC0
7F801FC0
7F801FC0
7FC01FC0
3FC01FC0
3FE01FC0
3FF01FC0
1FF87FC0
1FFFFFC0
0FFFDFC0
07FF9FC0
03FF1FC0
00F81FC0
00001FC0
00001FC0
00001FC0
00001FC0
00003FE0
00007FF0
0001FFFC
0001FFFC
ENDCHAR

STARTCHAR r
ENCODING 114
SWIDTH 479 0
DWIDTH 24 0
BBX 27 23 -1 0
BITMAP
00F83E00
07F87F00
3FF8FF80
3FF9FF80
1FFBFF80
07FBFF80
03FF3F00
03FE1F00
03FC0E00
03FC0000
03F80000
03F80000
03F80000
03F80000
03F80000
03F80000
03F80000
03F80000
03F80000
07FC0000
0FFE0000
3FFFC000
3FFFC000
ENDCHAR

STARTCHAR s
ENCODING 115
SWIDTH 458 0
DWIDTH 23 0
BBX 23 24 0 -1
BITMAP
01FF00
07FFE0
0F87E0
1E01E0
3E00F0
3E0070
3F0070
3FE000
3FFC00
3FFF00
1FFFC0
0FFFE0
07FFF0
01FFF8
007FF8
000FF8
3803F8
3C00F8
3C00F8
3E00F0
3F81F0
1FFFE0
07FFC0
00FE00
ENDCHAR

STARTCHAR t
ENCODING 116
SWIDTH 375 0
DWIDTH 19 0
BBX 20 30 -1 -1
BITMAP
003000
007000
007000
00F000
03F000
0FF000
3FFFE0
3FFFE0
3FFFE0
07F000
07F000
07F000
07F000
07F000
07F000
07F000
07F000
07F000
07F000
07F000
07F000
07F000
07F000
07F000
07F800
07FC20
07FFE0
03FFE0
01FFC0
00FF00
ENDCHAR

STARTCHAR u
ENCODING 117
SWIDTH 625 0
DWIDTH 31 0
BBX 31 24 0 -1
BITMAP
7FE0FFC0
7FE0FFC0
7FE0FFC0
1FE03FC0
1FE01FC0
0FE01FC0
0FE01FC0
0FE01FC0
0FE01FC0
0FE01FC0
0FE01FC0
0FE01FC0
0FE01FC0
0FE01FC0
0FE01FC0
0FE01FC0
0FE01FC0
0FF01FC0
0FF87FC0
0FFFFFE0
07FFDFFC
03FF9FFC
01FF1FF8
007C1E00
ENDCHAR

STARTCHAR v
ENCODING 118
SWIDTH 542 0
DWIDTH 27 0
BBX 29 24 -1 -1
BITMAP
7FFC1FF0
7FFC1FF0
3FF80FF0
1FF007C0
0FF003C0
0FF00380
07F80380
07F80700
03FC0700
03FC0E00
01FE0E00
01FE1C00
00FF1C00
00FF3800
007FB800
007FF000
003FF000
003FE000
001FE000
001FC000
001FC000
000F8000
000F8000
00070000
ENDCHAR

STARTCHAR w
ENCODING 119
SWIDTH 771 0
DWIDTH 39 0
BBX 41 24 -1 -1
BITMAP
3FF8FFF1FF00
3FF8FFF1FF00
3FF07FE0FE00
1FE03FC07C00
0FE03FC03C00
0FE01FC03800
07F01FE03800
07F00FE07000
07F81FF07000
03F81FF06000
03FC3FF0E000
01FC3FF8E000
01FC73F9C000
01FE73FDC000
00FEE1FF8000
00FFE1FF8000
007FC1FF8000
007FC0FF0000
007F80FF0000
003F807E0000
003F007E0000
001F003C0000
001E003C0000
001E003C0000
ENDCHAR

STARTCHAR x
ENCODING 120
SWIDTH 552 0
DWIDTH 28 0
BBX 29 23 0 0
BITMAP
7FFC7FE0
7FFC7FE0
3FF83FC0
1FF01F00
0FF81E00
07FC1C00
03FC3800
01FE7000
00FFE000
007FC000
007FC000
003FE000
001FF000
003FF000
007FF800
00F3FC00
01E3FE00
03C1FF00
0780FF80
0F80FFC0
7FC1FFE0
7FE3FFF0
7FE3FFF0
ENDCHAR

STARTCHAR y
ENCODING 121
SWIDTH 542 0
DWIDTH 27 0
BBX 29 32 -1 -9
BITMAP
7FFE1FF0
7FFE1FF0
3FF80FE0
1FF003C0
0FF00380
0FF00380
07F80300
07F80700
03FC0700
01FC0E00
01FE0E00
00FE0C00
00FF1C00
007F9800
007FB800
003FF000
003FF000
001FF000
001FE000
000FE000
0007C000
0007C000
00038000
00038000
00030000
0F070000
1F860000
1FDE0000
1FFC0000
1FFC0000
0FF80000
07E00000
ENDCHAR

STARTCHAR z
ENCODING 122
SWIDTH 510 0
DWIDTH 26 0
BBX 27 24 -1 0
BITMAP
1C000000
1FFFFF80
1FFFFF80
1FC0FF00
1F01FE00
1E03FE00
1C03FC00
1C07F800
000FF800
001FF000
001FE000
003FC000
007FC000
00FF8000
00FF0000
01FF0000
03FE0000
07FC0380
07F80780
0FF80F80
1FF01F80
3FE0FF00
3FFFFF00
3FFFFF00
ENDCHAR

STARTCHAR braceleft
ENCODING 123
SWIDTH 396 0
DWIDTH 20 0
BBX 16 44 2 -10
BITMAP
000E
007C
00F0
01E0
03C0
07C0
07C0
07C0
07E0
07E0
07E0
07E0
03E0
03E0
03E0
03E0
03E0
03C0
0780
0700
0E00
7800
7000
1E00
0700
0780
03C0
03E0
03E0
03E0
03E0
03E0
07E0
07E0
07C0
07C0
07C0
07C0
07C0
03C0
03E0
01F0
007C
001E
ENDCHAR

STARTCHAR bar
ENCODING 124
SWIDTH 219 0
DWIDTH 11 0
BBX 7 45 2 -11
BITMAP
38
38
38
38
38
38
38
38
38
38
38
38
38
38
38
38
38
38
38
38
38
38
38
38
38
38
38
38
38
38
38
38
38
38
38
38
38
38
38
38
38
38
38
38
38
ENDCHAR

STARTCHAR braceright
ENCODING 125
SWIDTH 396 0
DWIDTH 20 0
BBX 16 44 2 -10
BITMAP
7800
3E00
0F80
07C0
03C0
03E0
03E0
03E0
03E0
03E0
07E0
07E0
07C0
07C0
07C0
07C0
07C0
03C0
01E0
00E0
0070
001E
000E
0078
00F0
01E0
03C0
03C0
07C0
07C0
07C0
07E0
07E0
07E0
07E0
03E0
03E0
03E0
03E0
03C0
0780
0F80
1E00
7800
ENDCHAR

STARTCHAR asciitilde
ENCODING 126
SWIDTH 521 0
DWIDTH 26 0
BBX 28 9 -1 12
BITMAP
00000040
03F000C0
07FE00C0
0FFFC1C0
1FFFFF80
1FFFFF80
1C1FFF00
3007FE00
3000FC00
ENDCHAR

STARTCHAR space
ENCODING 160
SWIDTH 250 0
DWIDTH 15 0
BBX 0 0 0 0
BITMAP
ENDCHAR

STARTCHAR afii10023
ENCODING 161
SWIDTH 750 0
DWIDTH 38 0
BBX 39 45 0 0
BITMAP
001C007800
007E00FC00
00FF01FE00
00FF01FE00
00FF01FE00
00FF01FE00
007E00FC00
003C007800
0000000000
0000000000
0000000000
3FFFFFFFE0
3FFFFFFFE0
0FFE003FE0
07FE000FE0
03FE0007E0
03FE0003E0
03FE0001E0
03FE000000
03FE000000
03FE000000
03FE000000
03FE000E00
03FE001E00
03FE003E00
03FE00FE00
03FFFFFE00
03FFFFFE00
03FE00FE00
03FE003E00
03FE001E00
03FE001E00
03FE000E00
03FE000000
03FE000000
03FE000000
03FE000000
03FE000078
03FE0000F8
03FE0001F8
03FF0003F0
07FF000FF0
0FFFC07FF0
3FFFFFFFF0
3FFFFFFFF0
ENDCHAR

STARTCHAR afii10051
ENCODING 162
SWIDTH 850 0
DWIDTH 43 0
BBX 43 35 0 -1
BITMAP
7FFFFFFE0000
7FFFFFFE0000
7F1FF0FE0000
7E1FF03E0000
7C1FF01E0000
781FF01E0000
781FF00E0000
001FF0000000
001FF0000000
001FF0000000
001FF0000000
001FF0000000
001FF0000000
001FF01FC000
001FF0FFF800
001FF3FFFC00
001FFFFFFE00
001FFF07FF00
001FF801FF80
001FF001FF80
001FF000FF80
001FF000FFC0
001FF0007FC0
001FF0007FC0
001FF0007FC0
001FF0007FC0
001FF0007FC0
001FF0187F80
001FF03C7F80
001FF07C7F80
001FF87C7F00
007FFC7C7F00
01FFFE3CFE00
01FFFE1FFC00
0000000FF000
ENDCHAR

STARTCHAR afii10052
ENCODING 163
SWIDTH 646 0
DWIDTH 32 0
BBX 34 44 0 0
BITMAP
00007FF000
0000FFC000
0000FF8000
0001FE0000
0001F80000
0003E00000
0003800000
0000000000
0000000000
0000000000
3FFFFFFE00
3FFFFFFE00
0FFF81FF00
07FF007F00
03FE001F00
03FE000F00
03FE000700
03FE000380
03FE000380
03FE000000
03FE000000
03FE000000
03FE000000
03FE000000
03FE000000
03FE000000
03FE000000
03FE000000
03FE000000
03FE000000
03FE000000
03FE000000
03FE000000
03FE000000
03FE000000
03FE000000
03FE000000
03FE000000
03FE000000
03FE000000
07FF000000
1FFFC00000
3FFFF00000
3FFFF00000
ENDCHAR

STARTCHAR afii10053
ENCODING 164
SWIDTH 813 0
DWIDTH 41 0
BBX 39 36 1 -1
BITMAP
0000FFF800
0007FFFF00
001FF07FE0
007F801FF0
00FF0007F0
01FE0003F0
03FC0001F8
07FC0000F8
07F80000F8
0FF8000078
0FF0000038
1FF0000000
1FF0000000
1FF0000000
3FF0000000
3FF0000000
3FF0000000
3FFFFFF000
3FFFFFF000
3FF0000000
3FF0000000
3FF0000000
3FF0000000
3FF0000000
1FF0000000
1FF00000C0
0FF80003F0
0FF80003F8
07FC0007F8
03FE0007F8
01FE000FF8
00FF800FF8
007FE03FF0
001FFFFFE0
0003FFFF80
00001FF000
ENDCHAR

STARTCHAR afii10054
ENCODING 165
SWIDTH 656 0
DWIDTH 33 0
BBX 31 36 1 -1
BITMAP
003FF800
00FFFF80
03F87FE0
07F00FF0
0FE007F0
1FC003F0
1FC001F0
3FC001F0
3FE000F0
3FE000F0
3FF80000
3FFC0000
3FFF0000
1FFFC000
1FFFF000
0FFFFC00
07FFFF00
03FFFFC0
00FFFFE0
007FFFF0
001FFFF0
0003FFF8
0000FFF8
00003FFC
00001FFC
3C000FFC
3E0007FC
3E0007FC
3E0007F8
3F0007F8
3F8007F8
3FC007F0
3FE00FE0
3FF83FC0
07FFFF00
007FFC00
ENDCHAR

STARTCHAR afii10055
ENCODING 166
SWIDTH 406 0
DWIDTH 20 0
BBX 21 34 0 0
BITMAP
3FFFE0
3FFFE0
0FFF80
07FF00
03FE00
03FE00
03FE00
03FE00
03FE00
03FE00
03FE00
03FE00
03FE00
03FE00
03FE00
03FE00
03FE00
03FE00
03FE00
03FE00
03FE00
03FE00
03FE00
03FE00
03FE00
03FE00
03FE00
03FE00
03FE00
03FE00
07FF00
0FFF80
3FFFE0
3FFFE0
ENDCHAR

STARTCHAR afii10056
ENCODING 167
SWIDTH 406 0
DWIDTH 20 0
BBX 25 45 -2 0
BITMAP
0E001C00
3F007E00
7F80FF00
7F80FF00
7F80FF00
7F80FF00
3F007E00
1E003C00
00000000
00000000
00000000
0FFFF800
0FFFF800
03FFE000
01FFC000
00FF8000
00FF8000
00FF8000
00FF8000
00FF8000
00FF8000
00FF8000
00FF8000
00FF8000
00FF8000
00FF8000
00FF8000
00FF8000
00FF8000
00FF8000
00FF8000
00FF8000
00FF8000
00FF8000
00FF8000
00FF8000
00FF8000
00FF8000
00FF8000
00FF8000
00FF8000
01FFC000
03FFE000
0FFFF800
0FFFF800
ENDCHAR

STARTCHAR afii10057
ENCODING 168
SWIDTH 406 0
DWIDTH 20 0
BBX 25 44 -4 -10
BITMAP
03FFFE00
03FFFE00
00FFF800
007FF000
003FE000
003FE000
003FE000
003FE000
003FE000
003FE000
003FE000
003FE000
003FE000
003FE000
003FE000
003FE000
003FE000
003FE000
003FE000
003FE000
003FE000
003FE000
003FE000
003FE000
003FE000
003FE000
003FE000
003FE000
003FE000
003FE000
003FE000
003FE000
003FE000
003FE000
003FC000
003FC000
003FC000
1C3F8000
3E3F8000
7E3F0000
7F7E0000
3FFC0000
1FF80000
07800000
ENDCHAR

STARTCHAR afii10058
ENCODING 169
SWIDTH 1086 0
DWIDTH 54 0
BBX 55 35 0 -1
BITMAP
00FFFFFFFE0000
00FFFFFFFE0000
000FE0FFF80000
0007803FF00000
0003003FE00000
0003003FE00000
0003003FE00000
0003003FE00000
0003003FE00000
0003003FE00000
0003003FE00000
0003003FE00000
0003003FE00000
0003003FE00000
0003003FE00000
0003003FFFFC00
0003003FFFFF80
0003003FE0FFC0
0003003FE03FE0
0003003FE01FF0
0003003FE01FF0
0003003FE00FF8
0003003FE00FF8
0003003FE00FF8
0003003FE00FF8
0003003FE00FF8
1E07003FE00FF8
3F06003FE00FF8
3F8E003FE01FF0
3FFE003FE01FF0
3FFC007FE03FE0
3FFC00FFE1FFC0
1FF803FFFFFF80
0FF003FFFFFC00
07C00000000000
ENDCHAR

STARTCHAR afii10059
ENCODING 170
SWIDTH 1095 0
DWIDTH 55 0
BBX 56 34 0 0
BITMAP
3FFFE3FFFF0000
3FFFE3FFFF0000
0FFF80FFF80000
07FF007FF00000
03FE003FE00000
03FE003FE00000
03FE003FE00000
03FE003FE00000
03FE003FE00000
03FE003FE00000
03FE003FE00000
03FE003FE00000
03FE003FE00000
03FE003FE00000
03FE003FE00000
03FFFFFFFFFC00
03FFFFFFFFFF80
03FE003FE0FFE0
03FE003FE03FF0
03FE003FE00FF8
03FE003FE00FF8
03FE003FE00FFC
03FE003FE007FC
03FE003FE007FC
03FE003FE007FC
03FE003FE007FC
03FE003FE007FC
03FE003FE00FFC
03FE003FE00FFC
03FE003FE00FF8
07FF007FE01FF0
0FFF81FFE0FFF0
3FFFE3FFFFFFC0
3FFFE3FFFFFF00
ENDCHAR

STARTCHAR afii10060
ENCODING 171
SWIDTH 854 0
DWIDTH 43 0
BBX 43 34 0 0
BITMAP
7FFFFFFF8000
7FFFFFFF8000
7F0FF83F8000
7E0FF81F8000
7C0FF80F8000
7C0FF8078000
780FF8078000
000FF8000000
000FF8000000
000FF8000000
000FF8000000
000FF8000000
000FF8000000
000FF81FE000
000FF87FF800
000FF9FFFC00
000FFBFFFC00
000FFFC7FE00
000FFF03FE00
000FFC03FE00
000FF803FE00
000FF803FE00
000FF803FE00
000FF803FE00
000FF803FE00
000FF803FE00
000FF803FE00
000FF803FE00
000FF803FE00
000FF803FE00
001FFC07FE00
007FFE1FFF80
00FFFF1FFFC0
00FFFF1FFFC0
ENDCHAR

STARTCHAR afii10061
ENCODING 172
SWIDTH 781 0
DWIDTH 39 0
BBX 40 44 0 0
BITMAP
00000FFE00
00001FFC00
00001FF000
00003FC000
00003F0000
00007C0000
0000F00000
0000000000
0000000000
0000000000
3FFFE003F0
3FFFE00FF8
1FFFE01FF8
07FF003FF8
03FE003FF8
03FE007FF8
03FE0071F0
03FE006000
03FE00E000
03FE00E000
03FE00C000
03FE00C000
03FE01C000
03FE018000
03FE038000
03FE078000
03FFFFC000
03FFFFE000
03FFFFF000
03FE3FF800
03FE1FF800
03FE0FFC00
03FE0FFC00
03FE07FE00
03FE03FF00
03FE03FF00
03FE01FF80
03FE01FFC0
03FE00FFE0
03FE007FE0
07FF007FF0
1FFFC03FFC
3FFFE01FFE
3FFFE01FFE
ENDCHAR

STARTCHAR hyphen
ENCODING 173
SWIDTH 458 0
DWIDTH 23 0
BBX 21 6 1 10
BITMAP
3FFFE0
3FFFE0
3FFFE0
3FFFE0
3FFFE0
3FFFE0
ENDCHAR

STARTCHAR afii10062
ENCODING 174
SWIDTH 750 0
DWIDTH 38 0
BBX 38 46 0 -1
BITMAP
00F0003E00
01F8007F00
01FC00FF00
01FC00FF00
01FE01FF00
00FF03FE00
007FFFF800
000FFFC000
0000000000
0000000000
0000000000
7FFFC07FF8
7FFFC07FF8
3FFF803FF0
0FFE000FC0
0FFE000780
07FE000780
07FE000700
03FF000700
01FF000600
01FF800E00
00FFC00C00
00FFC01C00
007FE01C00
007FE01800
003FF03800
003FF03000
001FF87000
001FF87000
000FFC6000
000FFCE000
0007FEC000
0003FFC000
0003FF8000
0001FF8000
0001FF8000
0000FF0000
0000FF0000
07C07E0000
07E07E0000
0FF03C0000
0FF83C0000
07FC780000
07FFF00000
01FFE00000
007F800000
ENDCHAR

STARTCHAR afii10145
ENCODING 175
SWIDTH 854 0
DWIDTH 43 0
BBX 43 43 0 -9
BITMAP
3FFFF0FFFFC0
3FFFF0FFFFC0
1FFFC07FFF00
07FF001FFC00
03FE000FF800
03FE000FF800
03FE000FF800
03FE000FF800
03FE000FF800
03FE000FF800
03FE000FF800
03FE000FF800
03FE000FF800
03FE000FF800
03FE000FF800
03FE000FF800
03FE000FF800
03FE000FF800
03FE000FF800
03FE000FF800
03FE000FF800
03FE000FF800
03FE000FF800
03FE000FF800
03FE000FF800
03FE000FF800
03FE000FF800
03FE000FF800
03FE000FF800
03FE000FF800
07FF001FFC00
1FFFC07FFF00
3FFFFFFFFFC0
3FFFFFFFFFC0
00007FC00000
00007FC00000
00007FC00000
00007FC00000
00007FC00000
00007FC00000
00007FC00000
00007FC00000
00007FC00000
ENDCHAR

STARTCHAR afii10017
ENCODING 176
SWIDTH 781 0
DWIDTH 39 0
BBX 41 35 -1 0
BITMAP
0001FF000000
0000FF800000
0000FF800000
0000FFC00000
0000FFC00000
0000FFC00000
0001FFE00000
0001BFE00000
0003BFF00000
00031FF00000
00031FF00000
00071FF80000
00060FF80000
000E0FFC0000
000E07FC0000
000C07FC0000
001C07FE0000
001C03FE0000
003803FE0000
003FFFFF0000
003FFFFF0000
007FFFFF8000
007000FF8000
00E000FF8000
00E0007FC000
00E0007FC000
01C0007FE000
01C0003FE000
03C0003FE000
03C0003FF000
07C0003FF000
0FE0003FF800
3FF800FFFE00
7FF801FFFF00
7FF801FFFF00
ENDCHAR

STARTCHAR afii10018
ENCODING 177
SWIDTH 740 0
DWIDTH 37 0
BBX 36 34 0 0
BITMAP
3FFFFFFE00
3FFFFFFE00
0FFF83FE00
07FF007F00
03FE003F00
03FE001F00
03FE000F00
03FE000700
03FE000700
03FE000000
03FE000000
03FE000000
03FE000000
03FE000000
03FE000000
03FFFFE000
03FFFFFC00
03FE07FF00
03FE01FF80
03FE00FF80
03FE007FC0
03FE007FC0
03FE007FE0
03FE007FE0
03FE007FE0
03FE007FE0
03FE007FE0
03FE007FC0
03FE007FC0
03FE00FFC0
07FE01FF80
0FFE07FF00
3FFFFFFC00
3FFFFFF000
ENDCHAR

STARTCHAR afii10019
ENCODING 178
SWIDTH 781 0
DWIDTH 39 0
BBX 39 34 0 0
BITMAP
3FFFFFF800
3FFFFFFF00
0FFE03FFC0
07FE00FFE0
03FE007FE0
03FE003FF0
03FE003FF0
03FE001FF0
03FE001FF0
03FE001FF0
03FE001FF0
03FE003FE0
03FE003FC0
03FE007F80
03FE01FE00
03FFFFF000
03FFFFFC00
03FE03FF80
03FE007FC0
03FE003FE0
03FE001FF0
03FE001FF8
03FE001FF8
03FE000FF8
03FE000FF8
03FE000FF8
03FE000FF8
03FE001FF8
03FE001FF0
03FF003FF0
07FF007FE0
0FFFC1FFC0
3FFFFFFF00
3FFFFFFC00
ENDCHAR

STARTCHAR afii10020
ENCODING 179
SWIDTH 646 0
DWIDTH 32 0
BBX 34 34 0 0
BITMAP
3FFFFFFE00
3FFFFFFE00
0FFF81FF00
07FF007F00
03FE001F00
03FE000F00
03FE000700
03FE000380
03FE000380
03FE000000
03FE000000
03FE000000
03FE000000
03FE000000
03FE000000
03FE000000
03FE000000
03FE000000
03FE000000
03FE000000
03FE000000
03FE000000
03FE000000
03FE000000
03FE000000
03FE000000
03FE000000
03FE000000
03FE000000
03FE000000
07FF000000
1FFFC00000
3FFFF00000
3FFFF00000
ENDCHAR

STARTCHAR afii10021
ENCODING 180
SWIDTH 781 0
DWIDTH 39 0
BBX 40 43 -1 -9
BITMAP
07FFFFFFFE
07FFFFFFFE
01FE01FFF0
007800FFE0
0078007FC0
0030007FC0
0030007FC0
0030007FC0
0030007FC0
0030007FC0
0030007FC0
0030007FC0
0030007FC0
0030007FC0
0030007FC0
0030007FC0
0030007FC0
0030007FC0
0030007FC0
0070007FC0
0070007FC0
0060007FC0
0060007FC0
0060007FC0
0060007FC0
00E0007FC0
00C0007FC0
00C0007FC0
01C0007FC0
03C0007FC0
03C000FFE0
0FE001FFF0
3FFFFFFFFE
3FFFFFFFFE
3FF0000FFE
3F800001FE
3E0000007E
3C0000003E
3C0000001E
380000000E
380000000E
300000000E
300000000E
ENDCHAR

STARTCHAR afii10022
ENCODING 181
SWIDTH 750 0
DWIDTH 38 0
BBX 38 34 0 0
BITMAP
3FFFFFFFC0
3FFFFFFFC0
0FFE007FC0
07FE000FC0
03FE0007C0
03FE0003C0
03FE0001C0
03FE000000
03FE000000
03FE000000
03FE000000
03FE001E00
03FE001E00
03FE003E00
03FE00FE00
03FFFFFE00
03FFFFFE00
03FE00FE00
03FE003E00
03FE001E00
03FE001E00
03FE001E00
03FE000000
03FE000000
03FE000000
03FE000000
03FE000078
03FE0000F0
03FE0001F0
03FE0007F0
07FF000FF0
0FFFC07FF0
3FFFFFFFE0
3FFFFFFFE0
ENDCHAR

STARTCHAR afii10024
ENCODING 182
SWIDTH 1094 0
DWIDTH 55 0
BBX 55 34 0 0
BITMAP
0FC01FFFF007E0
1FF01FFFF01FF0
3FF80FFFF01FF8
3FF803FF803FF8
3FFC01FF003FF8
1FFC01FF007FF0
0F0C01FF0063E0
000E01FF006000
000E01FF00E000
000601FF00C000
000601FF00C000
000601FF00C000
000701FF01C000
000301FF018000
000381FF038000
0003C1FF078000
000FFFFF7FE000
001FFFFFFFF000
001FFFFFFFF000
003FF1FF1FF800
003FE1FF0FF800
007FE1FF0FFC00
007FC1FF07FC00
00FFC1FF07FE00
00FF81FF03FF00
01FF81FF03FF00
01FF01FF01FF80
03FF01FF01FF80
07FE01FF00FFC0
07FE01FF00FFE0
0FFC03FF807FF0
3FFC0FFFE07FF8
7FF81FFFF03FFC
7FF01FFFF01FFC
ENDCHAR

STARTCHAR afii10025
ENCODING 183
SWIDTH 750 0
DWIDTH 38 0
BBX 37 36 0 -1
BITMAP
001FFFC000
01FFFFF800
0FFC1FFC00
0FE007FF00
0FC003FF80
0F8001FF80
0F0000FFC0
0E0000FFC0
0E0000FFC0
0C0000FFC0
0C0000FFC0
000000FF80
000000FF80
000001FF00
000003FE00
00000FF800
001FFFC000
001FFFC000
000007FC00
000001FF00
000000FF80
000000FFC0
0000007FC0
0000007FE0
0000007FE0
3E00007FE0
3F00007FE0
7F80007FE0
7F80007FE0
7FC000FFC0
3FC000FFC0
3FE001FF80
1FF003FF00
0FFC1FFC00
03FFFFF000
003FFF8000
ENDCHAR

STARTCHAR afii10026
ENCODING 184
SWIDTH 854 0
DWIDTH 43 0
BBX 43 34 0 0
BITMAP
3FFFF1FFFFC0
3FFFF1FFFFC0
1FFFC07FFF00
07FF001FFC00
03FE000FF800
03FE000FF800
03FE000FF800
03FE001FF800
03FE001FF800
03FE003FF800
03FE007FF800
03FE00EFF800
03FE00CFF800
03FE01CFF800
03FE038FF800
03FE070FF800
03FE0E0FF800
03FE0E0FF800
03FE1C0FF800
03FE380FF800
03FE700FF800
03FE700FF800
03FEE00FF800
03FFC00FF800
03FF800FF800
03FF000FF800
03FF000FF800
03FE000FF800
03FE000FF800
03FE000FF800
07FF001FFC00
1FFFC07FFF00
3FFFF1FFFFC0
3FFFF1FFFFC0
ENDCHAR

STARTCHAR afii10027
ENCODING 185
SWIDTH 854 0
DWIDTH 43 0
BBX 43 45 0 0
BITMAP
001E0007C000
003F000FE000
007F801FE000
007F801FE000
003FC03FC000
003FE07FC000
000FFFFF0000
0001FFF80000
000000000000
000000000000
000000000000
3FFFF1FFFFC0
3FFFF1FFFFC0
1FFFC07FFF00
07FF001FFC00
03FE000FF800
03FE000FF800
03FE000FF800
03FE001FF800
03FE001FF800
03FE003FF800
03FE007FF800
03FE00EFF800
03FE00CFF800
03FE01CFF800
03FE038FF800
03FE070FF800
03FE0E0FF800
03FE0E0FF800
03FE1C0FF800
03FE380FF800
03FE700FF800
03FE700FF800
03FEE00FF800
03FFC00FF800
03FF800FF800
03FF000FF800
03FF000FF800
03FE000FF800
03FE000FF800
03FE000FF800
07FF001FFC00
1FFFC07FFF00
3FFFF1FFFFC0
3FFFF1FFFFC0
ENDCHAR

STARTCHAR afii10028
ENCODING 186
SWIDTH 781 0
DWIDTH 39 0
BBX 40 34 0 0
BITMAP
3FFFE003F0
3FFFE00FF8
1FFFE01FF8
07FF003FF8
03FE003FF8
03FE007FF8
03FE0071F0
03FE006000
03FE00E000
03FE00E000
03FE00C000
03FE00C000
03FE01C000
03FE018000
03FE038000
03FE078000
03FFFFC000
03FFFFE000
03FFFFF000
03FE3FF800
03FE1FF800
03FE0FFC00
03FE0FFC00
03FE07FE00
03FE03FF00
03FE03FF00
03FE01FF80
03FE01FFC0
03FE00FFE0
03FE007FE0
07FF007FF0
1FFFC03FFC
3FFFE01FFE
3FFFE01FFE
ENDCHAR

STARTCHAR afii10029
ENCODING 187
SWIDTH 833 0
DWIDTH 42 0
BBX 43 35 -1 -1
BITMAP
00FFFFFFFF80
00FFFFFFFF80
000FE07FFE00
0007801FFC00
0003000FF800
0003000FF800
0003000FF800
0003000FF800
0003000FF800
0003000FF800
0003000FF800
0003000FF800
0003000FF800
0003000FF800
0003000FF800
0003000FF800
0003000FF800
0003000FF800
0003000FF800
0003000FF800
0003000FF800
0003000FF800
0003000FF800
0003000FF800
0003000FF800
0003000FF800
1C03000FF800
3F07000FF800
7F8E000FF800
7FFE000FF800
7FFC001FFC00
7FFC003FFF00
3FF801FFFF80
1FF001FFFF80
07C000000000
ENDCHAR

STARTCHAR afii10030
ENCODING 188
SWIDTH 1010 0
DWIDTH 51 0
BBX 52 34 -1 0
BITMAP
07FFC0003FFE00
07FFC0003FFE00
01FFC0003FF800
00FFC0003FE000
007FC0003FE000
007FE0007FE000
007FE0007FE000
007FE0007FE000
00FFF000FFE000
00FFF000DFF000
00FFF801DFF000
00CFF801DFF000
00CFFC039FF000
01C7FC039FF000
01C7FE070FF000
01C7FE070FF800
01C3FE0E0FF800
0181FF0E0FF800
0181FF1C0FF800
0381FF9C0FF800
0380FFB807F800
0380FFF807FC00
03007FF007FC00
03007FF007FC00
03003FF007FC00
07003FE007FC00
07001FE007FC00
07001FC007FE00
07001FC007FE00
0F000FC007FE00
0F800F8007FF00
3FC00F801FFF80
7FF007807FFFE0
7FF007007FFFE0
ENDCHAR

STARTCHAR afii10031
ENCODING 189
SWIDTH 875 0
DWIDTH 44 0
BBX 44 34 0 0
BITMAP
7FFFE07FFFE0
7FFFE07FFFE0
0FFF801FFF00
07FF000FFE00
03FE0007FC00
03FE0007FC00
03FE0007FC00
03FE0007FC00
03FE0007FC00
03FE0007FC00
03FE0007FC00
03FE0007FC00
03FE0007FC00
03FE0007FC00
03FE0007FC00
03FFFFFFFC00
03FFFFFFFC00
03FFFFFFFC00
03FE0007FC00
03FE0007FC00
03FE0007FC00
03FE0007FC00
03FE0007FC00
03FE0007FC00
03FE0007FC00
03FE0007FC00
03FE0007FC00
03FE0007FC00
03FE0007FC00
03FE0007FC00
07FF000FFE00
0FFF801FFF00
7FFFE07FFFE0
7FFFE07FFFE0
ENDCHAR

STARTCHAR afii10032
ENCODING 190
SWIDTH 875 0
DWIDTH 44 0
BBX 41 36 1 -1
BITMAP
00007F000000
0007FFF00000
001FFFFE0000
007F80FF8000
00FE007FC000
01FC003FE000
03F8001FF000
07F8000FF800
0FF0000FF800
0FF00007FC00
1FF00007FE00
1FE00007FE00
3FE00003FE00
3FE00003FF00
3FE00003FF00
7FE00003FF00
7FE00003FF00
7FE00003FF00
7FE00003FF00
7FE00003FF00
7FE00003FF00
7FE00003FF00
7FE00003FE00
3FE00003FE00
3FF00003FE00
3FF00003FC00
1FF00007FC00
1FF80007F800
0FF80007F800
07FC000FF000
03FC001FE000
01FE001FC000
00FF807F8000
007FE1FE0000
000FFFF80000
0001FFC00000
ENDCHAR

STARTCHAR afii10033
ENCODING 191
SWIDTH 854 0
DWIDTH 43 0
BBX 43 34 0 0
BITMAP
3FFFFFFFFFC0
3FFFFFFFFFC0
0FFF803FFE00
07FF001FFC00
03FE000FF800
03FE000FF800
03FE000FF800
03FE000FF800
03FE000FF800
03FE000FF800
03FE000FF800
03FE000FF800
03FE000FF800
03FE000FF800
03FE000FF800
03FE000FF800
03FE000FF800
03FE000FF800
03FE000FF800
03FE000FF800
03FE000FF800
03FE000FF800
03FE000FF800
03FE000FF800
03FE000FF800
03FE000FF800
03FE000FF800
03FE000FF800
03FE000FF800
03FE000FF800
07FF001FFC00
1FFFE07FFF00
3FFFF1FFFFC0
3FFFF1FFFFC0
ENDCHAR

STARTCHAR afii10034
ENCODING 192
SWIDTH 729 0
DWIDTH 36 0
BBX 38 34 0 0
BITMAP
3FFFFFF800
3FFFFFFF00
0FFE03FF80
07FE00FFC0
03FE007FE0
03FE003FE0
03FE003FF0
03FE003FF0
03FE001FF0
03FE001FF0
03FE001FF0
03FE001FF0
03FE003FF0
03FE003FE0
03FE007FE0
03FE00FFC0
03FE3FFF00
03FE3FFC00
03FE1FC000
03FE000000
03FE000000
03FE000000
03FE000000
03FE000000
03FE000000
03FE000000
03FE000000
03FE000000
03FE000000
03FE000000
07FF000000
0FFF800000
3FFFF00000
3FFFF00000
ENDCHAR

STARTCHAR afii10035
ENCODING 193
SWIDTH 802 0
DWIDTH 40 0
BBX 39 36 1 -1
BITMAP
0000FFF800
0007FFFF00
001FE0FFE0
007F801FF0
00FF000FF0
01FE0007F0
03FC0003F0
07F80001F0
07F80000F0
0FF00000F8
0FF0000078
1FF0000000
1FF0000000
1FE0000000
3FE0000000
3FE0000000
3FE0000000
3FE0000000
3FE0000000
3FE0000000
3FF0000000
3FF0000000
3FF0000000
3FF0000000
1FF0000078
1FF8000078
0FF8000078
0FF80000F8
07FC0001F8
03FE0001F8
01FE0003F8
00FF8007F8
007FC00FF8
001FF07FE0
0007FFFF80
0000FFF800
ENDCHAR

STARTCHAR afii10036
ENCODING 194
SWIDTH 740 0
DWIDTH 37 0
BBX 37 34 0 0
BITMAP
7FFFFFFFF0
7FFFFFFFF0
7FC3FE1FF0
7F03FE07F0
7E03FE03F0
7C03FE01F0
7803FE00F0
0003FE0000
0003FE0000
0003FE0000
0003FE0000
0003FE0000
0003FE0000
0003FE0000
0003FE0000
0003FE0000
0003FE0000
0003FE0000
0003FE0000
0003FE0000
0003FE0000
0003FE0000
0003FE0000
0003FE0000
0003FE0000
0003FE0000
0003FE0000
0003FE0000
0003FE0000
0003FE0000
0007FF0000
000FFF8000
003FFFE000
003FFFE000
ENDCHAR

STARTCHAR afii10037
ENCODING 195
SWIDTH 750 0
DWIDTH 38 0
BBX 38 35 0 -1
BITMAP
7FFFC07FF8
7FFFC07FF8
3FFF803FF0
0FFE000FC0
0FFE000780
07FE000780
07FE000700
03FF000700
01FF000600
01FF800E00
00FFC00C00
00FFC01C00
007FE01C00
007FE01800
003FF03800
003FF03000
001FF87000
001FF87000
000FFC6000
000FFCE000
0007FEC000
0003FFC000
0003FF8000
0001FF8000
0001FF8000
0000FF0000
0000FF0000
07C07E0000
07E07E0000
0FF03C0000
0FF83C0000
07FC780000
07FFF00000
01FFE00000
007F800000
ENDCHAR

STARTCHAR afii10038
ENCODING 196
SWIDTH 974 0
DWIDTH 49 0
BBX 49 34 0 0
BITMAP
0001FFFFC00000
0001FFFFC00000
00003FFC000000
00000FF8000000
00000FF8000000
00000FF8000000
001FFFFFFE0000
00FFFFFFFF8000
03FC0FF81FE000
07F00FF807F000
0FE00FF803FC00
1FE00FF803FC00
3FC00FF801FE00
3FC00FF801FE00
3FC00FF801FF00
7FC00FF801FF00
7FC00FF801FF00
7FC00FF801FF00
7FC00FF801FF00
3FC00FF801FF00
3FC00FF801FE00
1FC00FF803FE00
1FE00FF803FC00
0FF00FF807F800
07F80FF80FF000
01FE0FF87FE000
007FFFFFFF0000
0007FFFFF80000
00000FF8000000
00000FF8000000
00000FF8000000
00007FFF000000
0001FFFFC00000
0001FFFFC00000
ENDCHAR

STARTCHAR afii10039
ENCODING 197
SWIDTH 781 0
DWIDTH 39 0
BBX 41 34 -1 0
BITMAP
7FFFF87FF800
7FFFF87FF800
1FFFE03FF000
07FF800FC000
03FF800F8000
03FF800F0000
01FFC01E0000
00FFE03C0000
007FE0780000
007FF0700000
003FF8E00000
001FFDC00000
000FFF800000
000FFF000000
0007FF000000
0003FF800000
0001FF800000
0001FFC00000
0000FFE00000
0000FFF00000
0001FFF80000
0003FFF80000
00079FFC0000
00070FFE0000
000E07FF0000
001C03FF0000
003801FF8000
007801FFC000
00F000FFE000
01F000FFE000
03F800FFF000
0FFC01FFFC00
3FFE0FFFFF00
3FFE0FFFFF00
ENDCHAR

STARTCHAR afii10040
ENCODING 198
SWIDTH 854 0
DWIDTH 43 0
BBX 43 43 0 -9
BITMAP
3FFFF0FFFFC0
3FFFF0FFFFC0
1FFFC07FFF00
07FF001FFC00
03FE000FF800
03FE000FF800
03FE000FF800
03FE000FF800
03FE000FF800
03FE000FF800
03FE000FF800
03FE000FF800
03FE000FF800
03FE000FF800
03FE000FF800
03FE000FF800
03FE000FF800
03FE000FF800
03FE000FF800
03FE000FF800
03FE000FF800
03FE000FF800
03FE000FF800
03FE000FF800
03FE000FF800
03FE000FF800
03FE000FF800
03FE000FF800
03FE000FF800
03FE000FF800
07FF001FFC00
0FFF803FFE00
3FFFFFFFFFC0
3FFFFFFFFFC0
00000001FFC0
000000003FC0
000000000FC0
0000000007C0
0000000003C0
0000000003C0
0000000001C0
0000000001C0
0000000001C0
ENDCHAR

STARTCHAR afii10041
ENCODING 199
SWIDTH 854 0
DWIDTH 43 0
BBX 43 34 0 0
BITMAP
3FFFE0FFFFC0
3FFFE0FFFFC0
1FFF803FFF00
07FF001FFC00
03FE000FF800
03FE000FF800
03FE000FF800
03FE000FF800
03FE000FF800
03FE000FF800
03FE000FF800
03FE000FF800
03FE000FF800
03FE000FF800
03FE000FF800
03FE001FF800
01FE003FF800
01FF007FF800
00FF81EFF800
00FFFFCFF800
007FFF8FF800
001FFE0FF800
0003F00FF800
0000000FF800
0000000FF800
0000000FF800
0000000FF800
0000000FF800
0000000FF800
0000000FF800
0000001FFC00
0000007FFF00
000000FFFFC0
000000FFFFC0
ENDCHAR

STARTCHAR afii10042
ENCODING 200
SWIDTH 1125 0
DWIDTH 56 0
BBX 57 34 -1 0
BITMAP
3FFFEFFFFBFFFE00
3FFFEFFFFBFFFE00
0FFF81FFC07FF800
03FE00FF803FF000
03FE00FF803FE000
03FE00FF803FE000
03FE00FF803FE000
03FE00FF803FE000
03FE00FF803FE000
03FE00FF803FE000
03FE00FF803FE000
03FE00FF803FE000
03FE00FF803FE000
03FE00FF803FE000
03FE00FF803FE000
03FE00FF803FE000
03FE00FF803FE000
03FE00FF803FE000
03FE00FF803FE000
03FE00FF803FE000
03FE00FF803FE000
03FE00FF803FE000
03FE00FF803FE000
03FE00FF803FE000
03FE00FF803FE000
03FE00FF803FE000
03FE00FF803FE000
03FE00FF803FE000
03FE00FF803FE000
03FE00FF803FE000
03FE00FF803FF000
0FFF83FFE0FFF800
3FFFFFFFFFFFFE00
3FFFFFFFFFFFFE00
ENDCHAR

STARTCHAR afii10043
ENCODING 201
SWIDTH 1125 0
DWIDTH 56 0
BBX 57 43 -1 -9
BITMAP
3FFFEFFFFBFFFE00
3FFFEFFFFBFFFE00
0FFF81FFC07FF800
03FE00FF803FF000
03FE00FF803FE000
03FE00FF803FE000
03FE00FF803FE000
03FE00FF803FE000
03FE00FF803FE000
03FE00FF803FE000
03FE00FF803FE000
03FE00FF803FE000
03FE00FF803FE000
03FE00FF803FE000
03FE00FF803FE000
03FE00FF803FE000
03FE00FF803FE000
03FE00FF803FE000
03FE00FF803FE000
03FE00FF803FE000
03FE00FF803FE000
03FE00FF803FE000
03FE00FF803FE000
03FE00FF803FE000
03FE00FF803FE000
03FE00FF803FE000
03FE00FF803FE000
03FE00FF803FE000
03FE00FF803FE000
03FE00FF803FE000
03FE00FF803FF000
0FFF83FFE0FFF800
3FFFFFFFFFFFFE00
3FFFFFFFFFFFFE00
00000000000FFE00
000000000000FE00
0000000000007E00
0000000000003E00
0000000000001E00
0000000000000E00
0000000000000E00
0000000000000E00
0000000000000600
ENDCHAR

STARTCHAR afii10044
ENCODING 202
SWIDTH 832 0
DWIDTH 42 0
BBX 43 34 -1 0
BITMAP
3FFFFFF00000
3FFFFFF00000
3F87FF800000
3E03FF000000
3C03FE000000
3803FE000000
3803FE000000
3003FE000000
3003FE000000
0003FE000000
0003FE000000
0003FE000000
0003FE000000
0003FE000000
0003FE000000
0003FFFFC000
0003FFFFF000
0003FE0FFC00
0003FE03FE00
0003FE01FF00
0003FE01FF00
0003FE00FF80
0003FE00FF80
0003FE00FF80
0003FE00FF80
0003FE00FF80
0003FE00FF80
0003FE01FF80
0003FE01FF80
0003FE03FF00
0007FE07FE00
001FFE1FFC00
007FFFFFF800
007FFFFFE000
ENDCHAR

STARTCHAR afii10045
ENCODING 203
SWIDTH 1125 0
DWIDTH 56 0
BBX 55 34 1 0
BITMAP
7FFFC0000FFFF8
7FFFC0000FFFF8
1FFF000003FFF0
0FFE000001FFC0
07FC000000FF80
07FC000000FF80
07FC000000FF80
07FC000000FF80
07FC000000FF80
07FC000000FF80
07FC000000FF80
07FC000000FF80
07FC000000FF80
07FC000000FF80
07FC000000FF80
07FFFFE000FF80
07FFFFFC00FF80
07FC07FE00FF80
07FC01FF00FF80
07FC00FF80FF80
07FC00FF80FF80
07FC007FC0FF80
07FC007FC0FF80
07FC007FC0FF80
07FC007FC0FF80
07FC007FC0FF80
07FC007FC0FF80
07FC00FFC0FF80
07FC00FF80FF80
07FC01FF80FF80
0FFC03FF01FFC0
1FFC0FFE03FFF0
7FFFFFFC0FFFF8
7FFFFFF00FFFF8
ENDCHAR

STARTCHAR afii10046
ENCODING 204
SWIDTH 721 0
DWIDTH 36 0
BBX 37 34 0 0
BITMAP
3FFFF00000
3FFFF00000
0FFF800000
07FF000000
03FE000000
03FE000000
03FE000000
03FE000000
03FE000000
03FE000000
03FE000000
03FE000000
03FE000000
03FE000000
03FE000000
03FFFFF000
03FFFFFC00
03FE03FF00
03FE00FF80
03FE007FC0
03FE007FC0
03FE007FE0
03FE003FE0
03FE003FE0
03FE003FE0
03FE003FE0
03FE003FE0
03FE007FE0
03FE007FE0
03FE00FFC0
07FE01FF80
1FFE07FF00
3FFFFFFE00
3FFFFFF800
ENDCHAR

STARTCHAR afii10047
ENCODING 205
SWIDTH 802 0
DWIDTH 40 0
BBX 38 36 1 -1
BITMAP
003FFC0000
03FFFF8000
0FF81FE000
3FE007F800
3FC001FC00
3F8000FE00
3F0000FF00
3E00007F80
3C00007FC0
3800003FC0
7800003FE0
0000003FE0
0000001FF0
0000001FF0
0000001FF0
0000001FF0
0000001FF8
001FFFFFF8
001FFFFFF8
0000001FF8
0000001FF8
0000001FF0
0000001FF0
0000001FF0
0000003FF0
0000003FF0
1F00003FE0
3F80007FE0
3F80007FC0
7FC000FF80
7FC001FF80
3FE003FE00
3FF007FC00
1FFC1FF000
07FFFFC000
00FFFE0000
ENDCHAR

STARTCHAR afii10048
ENCODING 206
SWIDTH 1219 0
DWIDTH 61 0
BBX 60 36 0 -1
BITMAP
000000000FE00000
3FFFE000FFFE0000
3FFFE003FFFFC000
0FFF800FF01FF000
07FF001FC00FF800
03FE003F8007FC00
03FE007F0003FE00
03FE00FF0001FF00
03FE01FE0001FF00
03FE01FE0000FF80
03FE03FE0000FF80
03FE03FC0000FFC0
03FE07FC00007FC0
03FE07FC00007FE0
03FE07FC00007FE0
03FE0FFC00007FE0
03FE0FFC00007FE0
03FFFFFC00007FE0
03FFFFFC00007FE0
03FE0FFC00007FE0
03FE0FFC00007FE0
03FE0FFC00007FE0
03FE0FFC00007FC0
03FE07FC00007FC0
03FE07FE00007FC0
03FE07FE00007F80
03FE03FE0000FF80
03FE03FF0000FF00
03FE01FF0000FF00
03FE00FF8001FE00
03FE007F8003FC00
07FF003FC007F800
0FFF801FF00FF000
3FFFE00FFC3FC000
3FFFE003FFFF0000
000000007FF80000
ENDCHAR

STARTCHAR afii10049
ENCODING 207
SWIDTH 802 0
DWIDTH 40 0
BBX 40 34 0 0
BITMAP
000FFFFFFE
007FFFFFFE
00FFE07FF0
01FF807FE0
03FF007FC0
03FE007FC0
07FC007FC0
07FC007FC0
07FC007FC0
07FC007FC0
07FC007FC0
03FC007FC0
03FE007FC0
01FE007FC0
00FF007FC0
003FC07FC0
000FFFFFC0
0007FFFFC0
0007FE7FC0
000FFC7FC0
001FF87FC0
003FF07FC0
007FF07FC0
007FE07FC0
00FFC07FC0
01FFC07FC0
01FF807FC0
03FF007FC0
07FF007FC0
0FFE007FC0
1FFC00FFE0
3FF807FFFC
7FF00FFFFE
7FE00FFFFE
ENDCHAR

STARTCHAR afii10065
ENCODING 208
SWIDTH 563 0
DWIDTH 28 0
BBX 28 24 1 -1
BITMAP
003FC000
03FFF800
0FFFFC00
1FC1FE00
3F80FE00
3F80FE00
3F80FE00
3F80FE00
3E00FE00
1000FE00
000FFE00
007FFE00
03FCFE00
0FE0FE00
1FC0FE00
3F80FE00
3F80FE00
7F80FE00
7F81FF40
7FC3FFC0
3FFFFFE0
3FFE7FC0
1FF87F80
03E01C00
ENDCHAR

STARTCHAR afii10066
ENCODING 209
SWIDTH 583 0
DWIDTH 29 0
BBX 28 36 0 -1
BITMAP
000000E0
003FFFE0
00FFFFC0
01FFFFC0
03FFFF80
07FFFF00
07FFFE00
0FF00000
0F800000
1E000000
1C000000
1C000000
181FE000
387FF800
38F8FE00
31F07F00
31E03F80
33E03F80
33E03FC0
33C01FC0
37C01FE0
37C01FE0
37C01FE0
37C01FE0
37C01FE0
3FC01FE0
1FC01FE0
1FE01FC0
1FE01FC0
0FE01FC0
0FE03F80
07F03F00
03F03F00
01FCFC00
00FFF800
003FE000
ENDCHAR

STARTCHAR afii10067
ENCODING 210
SWIDTH 573 0
DWIDTH 29 0
BBX 28 23 0 0
BITMAP
7FFFFC00
7FFFFF00
1FF87F80
0FF03FC0
07F01FC0
07F01FC0
07F01FC0
07F01FC0
07F01F80
07F07F00
07FFFC00
07FFF800
07F07F00
07F03F80
07F01FC0
07F01FE0
07F01FE0
07F01FE0
07F01FE0
0FF03FC0
1FF87FC0
7FFFFF80
7FFFFC00
ENDCHAR

STARTCHAR afii10068
ENCODING 211
SWIDTH 542 0
DWIDTH 27 0
BBX 28 23 0 0
BITMAP
7FFFFFC0
7FFFFFC0
1FF83FC0
0FF007C0
07F003C0
07F001C0
07F001C0
07F000C0
07F00000
07F00000
07F00000
07F00000
07F00000
07F00000
07F00000
07F00000
07F00000
07F00000
07F00000
0FF80000
3FFE0000
7FFF0000
7FFF0000
ENDCHAR

STARTCHAR afii10069
ENCODING 212
SWIDTH 565 0
DWIDTH 28 0
BBX 29 31 0 -8
BITMAP
0FFFFFF0
0FFFFFF0
07C0FFC0
03807F80
01807F00
01807F00
01807F00
01807F00
01807F00
01807F00
01807F00
01807F00
01807F00
03807F00
03807F00
03007F00
03007F00
03007F00
07007F00
07007F80
1F00FFC0
3FFFFFF0
3FFFFFF0
3F800FF0
3E0003F0
3C0000F0
380000F0
38000070
38000070
30000070
30000070
ENDCHAR

STARTCHAR afii10070
ENCODING 213
SWIDTH 521 0
DWIDTH 26 0
BBX 26 24 0 -1
BITMAP
007FC000
01FFF000
03E3F800
07C0FC00
0F80FE00
0F807F00
1F807F00
1F807F00
3FFFFF00
3FFFFF80
3F800000
3F800000
3F800000
3FC00000
3FC00000
3FE00000
3FF00200
1FF80700
1FFE3F00
0FFFFE00
07FFFC00
03FFF800
01FFE000
007F8000
ENDCHAR

STARTCHAR afii10072
ENCODING 214
SWIDTH 1021 0
DWIDTH 51 0
BBX 51 23 0 0
BITMAP
1F803FFF803F00
3FE03FFF807F80
3FF00FFF00FF80
3FF007FC01FF80
1E3803F8038F00
001C03F8070000
000E03F8070000
000E03F80E0000
000703F81C0000
0007E3F8FC0000
001FFFFFFF0000
003FFFFFFF8000
007FE3F8FFC000
00FF83F83FE000
00FF03F81FF000
01FF03F80FF000
01FE03F80FF800
03FC03F807F800
07FC03F807FC00
07F807FC03FE00
3FF03FFF81FF80
7FF03FFF81FFC0
7FE03FFF80FFC0
ENDCHAR

STARTCHAR afii10073
ENCODING 215
SWIDTH 521 0
DWIDTH 26 0
BBX 26 24 0 -1
BITMAP
00FFC000
0FFFF800
1FC1FC00
1F00FE00
1E00FF00
1E00FF00
1C00FF00
1C00FE00
0001FC00
0003F800
007FC000
007FE000
0007F800
0001FE00
0000FE00
0000FF00
3E00FF00
3E00FF00
3F00FF00
3F00FE00
3F81FE00
1FC3FC00
0FFFF000
01FF8000
ENDCHAR

STARTCHAR afii10074
ENCODING 216
SWIDTH 625 0
DWIDTH 31 0
BBX 31 23 0 0
BITMAP
3FFE7FFC
3FFE7FFC
1FFC7FF0
07F01FC0
07F01FC0
07F01FC0
07F03FC0
07F07FC0
07F07FC0
07F0DFC0
07F19FC0
07F39FC0
07F71FC0
07F61FC0
07FC1FC0
07F81FC0
07F81FC0
07F01FC0
07F01FC0
07F01FE0
3FFC7FF8
7FFE7FFC
7FFE7FFC
ENDCHAR

STARTCHAR afii10075
ENCODING 217
SWIDTH 625 0
DWIDTH 31 0
BBX 31 33 0 0
BITMAP
01E00780
01F00F80
01F00F80
01F01F80
01F81F80
00FC3F00
007FFE00
000FF000
00000000
00000000
3FFE7FFC
3FFE7FFC
1FFC7FF0
07F01FC0
07F01FC0
07F01FC0
07F03FC0
07F07FC0
07F07FC0
07F0DFC0
07F19FC0
07F39FC0
07F71FC0
07F61FC0
07FC1FC0
07F81FC0
07F81FC0
07F01FC0
07F01FC0
07F01FE0
3FFC7FF8
7FFE7FFC
7FFE7FFC
ENDCHAR

STARTCHAR afii10076
ENCODING 218
SWIDTH 604 0
DWIDTH 30 0
BBX 32 23 0 0
BITMAP
7FFF01F0
7FFF03F8
1FFE07F8
0FF80FF8
07F00FF8
07F01E00
07F03800
07F03800
07F07000
07F0F000
07FFFC00
07FFFE00
07FFFF00
07F1FF00
07F0FF80
07F07F80
07F07FC0
07F03FC0
07F03FE0
0FF81FF0
3FFE0FF8
7FFF0FFC
7FFF07FC
ENDCHAR

STARTCHAR afii10077
ENCODING 219
SWIDTH 573 0
DWIDTH 29 0
BBX 29 24 -1 -1
BITMAP
0FFFFFF0
0FFFFFF0
03E0FFC0
01C07F80
01C07F00
01C07F00
01C07F00
01C07F00
01C07F00
01C07F00
01C07F00
01C07F00
01C07F00
01C07F00
01C07F00
01C07F00
01C07F00
03807F00
3F807F00
3F80FF80
7F81FFE0
7F07FFF0
3F07FFF0
1C000000
ENDCHAR

STARTCHAR afii10078
ENCODING 220
SWIDTH 781 0
DWIDTH 39 0
BBX 41 23 -1 0
BITMAP
1FFC000FFC00
1FFC001FFC00
07FE001FF800
03FE001FF000
03FF003FF000
03FF003FF000
037F8037F000
037F8077F000
077FC067F000
073FC0E7F000
061FE0C7F000
061FE1C7F000
060FF387F000
060FFB87F000
0607FF07F000
0607FE07F800
0603FE07F800
0601FC07F800
0E01FC07F800
0E00F807F800
3F80F80FFE00
3F80701FFE00
3F80701FFE00
ENDCHAR

STARTCHAR afii10079
ENCODING 221
SWIDTH 604 0
DWIDTH 30 0
BBX 31 23 0 0
BITMAP
7FFCFFFC
7FFCFFFC
1FFC7FF0
07F01FC0
07F01FC0
07F01FC0
07F01FC0
07F01FC0
07F01FC0
07F01FC0
07FFFFC0
07FFFFC0
07F01FC0
07F01FC0
07F01FC0
07F01FC0
07F01FC0
07F01FC0
07F01FC0
07F01FC0
3FFC7FF8
7FFCFFFC
7FFCFFFC
ENDCHAR

STARTCHAR afii10080
ENCODING 222
SWIDTH 573 0
DWIDTH 29 0
BBX 27 24 1 -1
BITMAP
007FC000
01FFF000
03F1FC00
0FC0FE00
0FC0FF00
1F807F00
3F807F80
3F803F80
3F803FC0
7F803FC0
7F803FC0
7F803FC0
7F803FC0
7F803FC0
7F803FC0
7F803F80
3F803F80
3FC03F80
1FC03F00
1FC07F00
0FE07E00
07F1FC00
01FFF000
007FC000
ENDCHAR

STARTCHAR afii10081
ENCODING 223
SWIDTH 615 0
DWIDTH 31 0
BBX 32 23 -1 0
BITMAP
3FFFFFFE
3FFFFFFE
1FF81FF8
0FF00FF0
07F00FE0
07F00FE0
07F00FE0
07F00FE0
07F00FE0
07F00FE0
07F00FE0
07F00FE0
07F00FE0
07F00FE0
07F00FE0
07F00FE0
07F00FE0
07F00FE0
07F00FE0
0FF81FF0
3FFE3FFC
3FFE7FFE
3FFE7FFE
ENDCHAR

STARTCHAR afii10082
ENCODING 224
SWIDTH 615 0
DWIDTH 31 0
BBX 31 32 -1 -9
BITMAP
00F07E00
07F1FF80
3FF7FFC0
7FFFFFE0
3FFFFFF0
1FFC3FF8
0FF00FF8
07F007F8
07F007FC
07F003FC
07F003FC
07F003FC
07F003FC
07F003FC
07F003FC
07F003F8
07F003F8
07F003F0
07F807F0
07F80FE0
07FC0FC0
07FE3F80
07FFFE00
07FFF800
07F00000
07F00000
07F00000
07F00000
0FF80000
1FFC0000
7FFF0000
7FFF0000
ENDCHAR

STARTCHAR afii10083
ENCODING 225
SWIDTH 521 0
DWIDTH 26 0
BBX 25 24 1 -1
BITMAP
003FE000
01FFF800
07E3FC00
0FC1FE00
0F80FE00
1F80FE00
3F007E00
3F007C00
3F003800
7F000000
7F000000
7F000000
7F800000
7F800000
7F800000
7FC00000
3FE00400
3FF00E00
1FFC3E00
1FFFFC00
0FFFFC00
07FFF000
03FFE000
00FF0000
ENDCHAR

STARTCHAR afii10084
ENCODING 226
SWIDTH 583 0
DWIDTH 29 0
BBX 29 23 0 0
BITMAP
3FFFFFE0
3FFFFFE0
3F9FC7E0
3E1FC1F0
381FC0F0
781FC070
701FC070
701FC070
001FC000
001FC000
001FC000
001FC000
001FC000
001FC000
001FC000
001FC000
001FC000
001FC000
001FC000
003FE000
00FFF800
01FFFC00
01FFFC00
ENDCHAR

STARTCHAR afii10085
ENCODING 227
SWIDTH 542 0
DWIDTH 27 0
BBX 29 32 -1 -9
BITMAP
7FFE1FF0
7FFE1FF0
3FF80FE0
1FF003C0
0FF00380
0FF00380
07F80300
07F80700
03FC0700
01FC0E00
01FE0E00
00FE0C00
00FF1C00
007F9800
007FB800
003FF000
003FF000
001FF000
001FE000
000FE000
0007C000
0007C000
00038000
00038000
00030000
0F070000
1F860000
1FDE0000
1FFC0000
1FFC0000
0FF80000
07E00000
ENDCHAR

STARTCHAR afii10086
ENCODING 228
SWIDTH 823 0
DWIDTH 41 0
BBX 40 45 1 -10
BITMAP
0000060000
00007E0000
0003FE0000
0007FE0000
0007FE0000
0001FE0000
0000FE0000
0000FE0000
0000FE0000
0000FE0000
0000FE0000
0000FE0000
00FCFE7E00
03FEFEFF80
07C7FFC7E0
0F81FF03E0
1F81FF03F0
1F80FE03F8
3F00FE01F8
3F00FE01FC
7F00FE01FC
7F00FE01FC
7F00FE01FC
7F00FE01FC
7F00FE01FC
7F00FE01FC
7F00FE01FC
7F00FE01FC
3F00FE01FC
3F00FE01F8
3F80FE03F8
1F81FF03F0
0F83FF83F0
07E7FFC7E0
03FEFEFF80
01FCFE7F00
0000FE0000
0000FE0000
0000FE0000
0000FE0000
0000FE0000
0000FE0000
0003FF8000
0007FFE000
0007FFE000
ENDCHAR

STARTCHAR afii10087
ENCODING 229
SWIDTH 552 0
DWIDTH 28 0
BBX 29 23 0 0
BITMAP
7FFC7FE0
7FFC7FE0
3FF83FC0
1FF01F00
0FF81E00
07FC1C00
03FC3800
01FE7000
00FFE000
007FC000
007FC000
003FE000
001FF000
003FF000
007FF800
00F3FC00
01E3FE00
03C1FF00
0780FF80
0F80FFC0
7FC1FFE0
7FE3FFF0
7FE3FFF0
ENDCHAR

STARTCHAR afii10088
ENCODING 230
SWIDTH 615 0
DWIDTH 31 0
BBX 32 31 -1 -8
BITMAP
3FFE7FFE
3FFE7FFE
1FFC1FFC
0FF00FF0
07F00FE0
07F00FE0
07F00FE0
07F00FE0
07F00FE0
07F00FE0
07F00FE0
07F00FE0
07F00FE0
07F00FE0
07F00FE0
07F00FE0
07F00FE0
07F00FE0
07F00FE0
0FF81FF0
1FFC3FF8
3FFFFFFE
3FFFFFFE
000001FE
0000007E
0000003E
0000001E
0000000E
0000000E
0000000E
0000000E
ENDCHAR

STARTCHAR afii10089
ENCODING 231
SWIDTH 594 0
DWIDTH 30 0
BBX 32 23 -1 0
BITMAP
3FFE7FFE
3FFE7FFE
1FF81FF8
07F00FF0
07F00FE0
07F00FE0
07F00FE0
07F00FE0
07F00FE0
07F00FE0
07F80FE0
03FC3FE0
03FFFFE0
01FFEFE0
007F8FE0
00000FE0
00000FE0
00000FE0
00000FE0
00001FF0
0000FFFE
0000FFFE
0000FFFE
ENDCHAR

STARTCHAR afii10090
ENCODING 232
SWIDTH 1022 0
DWIDTH 51 0
BBX 51 23 0 0
BITMAP
7FFF3FFF9FFFC0
7FFF3FFF9FFFC0
3FFC0FFE07FF80
0FF807FC03FE00
07F003F801FC00
07F003F801FC00
07F003F801FC00
07F003F801FC00
07F003F801FC00
07F003F801FC00
07F003F801FC00
07F003F801FC00
07F003F801FC00
07F003F801FC00
07F003F801FC00
07F003F801FC00
07F003F801FC00
07F003F801FC00
07F003F801FC00
07F807FC03FE00
1FFC0FFE07FF00
7FFFFFFFFFFFC0
7FFFFFFFFFFFC0
ENDCHAR

STARTCHAR afii10091
ENCODING 233
SWIDTH 1019 0
DWIDTH 51 0
BBX 51 31 0 -8
BITMAP
3FFE3FFF1FFFC0
3FFE3FFF1FFFC0
1FFC1FFE07FF80
0FF807FC03FE00
07F003F801FC00
07F003F801FC00
07F003F801FC00
07F003F801FC00
07F003F801FC00
07F003F801FC00
07F003F801FC00
07F003F801FC00
07F003F801FC00
07F003F801FC00
07F003F801FC00
07F003F801FC00
07F003F801FC00
07F003F801FC00
07F003F801FC00
0FF807FC03FE00
1FFC0FFE07FF00
7FFFFFFFFFFFC0
7FFFFFFFFFFFC0
00000000003FC0
00000000000FC0
000000000007C0
000000000003C0
000000000001C0
000000000001C0
000000000001C0
000000000001C0
ENDCHAR

STARTCHAR afii10092
ENCODING 234
SWIDTH 729 0
DWIDTH 36 0
BBX 37 23 -1 0
BITMAP
3FFFFF0000
3FFFFF0000
3F8FFC0000
3E07F80000
3C07F00000
3807F00000
3807F00000
3007F00000
0007F00000
0007F00000
0007FFFF00
0007FFFF80
0007F03FE0
0007F01FE0
0007F00FF0
0007F00FF0
0007F00FF0
0007F00FF0
0007F00FF0
0007F01FE0
001FF87FE0
007FFFFF80
007FFFFF00
ENDCHAR

STARTCHAR afii10093
ENCODING 235
SWIDTH 833 0
DWIDTH 42 0
BBX 43 23 -1 0
BITMAP
3FFF001FFFC0
3FFF001FFFC0
3FFE000FFF80
0FF80003FE00
07F00001FC00
07F00001FC00
07F00001FC00
07F00001FC00
07F00001FC00
07F00001FC00
07FFFE01FC00
07FFFF01FC00
07F07F81FC00
07F03FC1FC00
07F01FE1FC00
07F01FE1FC00
07F01FE1FC00
07F01FE1FC00
07F01FE1FC00
0FF03FC3FE00
1FF87F87FF00
3FFFFF0FFFC0
3FFFFC0FFFC0
ENDCHAR

STARTCHAR afii10094
ENCODING 236
SWIDTH 563 0
DWIDTH 28 0
BBX 28 23 0 0
BITMAP
7FFF0000
7FFF0000
3FFE0000
0FF80000
07F00000
07F00000
07F00000
07F00000
07F00000
07F00000
07FFFC00
07FFFF00
07F07F80
07F03FC0
07F01FE0
07F01FE0
07F01FE0
07F01FE0
07F01FE0
0FF03FC0
1FF87F80
7FFFFF00
7FFFFC00
ENDCHAR

STARTCHAR afii10095
ENCODING 237
SWIDTH 521 0
DWIDTH 26 0
BBX 26 24 0 -1
BITMAP
03FF0000
1FFFE000
1F87F000
1F01FC00
1E01FC00
1C00FE00
1C00FE00
1800FF00
0000FF00
0000FF00
007FFF00
007FFF00
0000FF00
0000FF00
0000FF00
0000FF00
1E00FE00
3F00FE00
3F80FC00
3F81FC00
3FC1F800
1FE3F000
0FFFC000
01FE0000
ENDCHAR

STARTCHAR afii10096
ENCODING 238
SWIDTH 854 0
DWIDTH 43 0
BBX 42 24 0 -1
BITMAP
3FFE00FF8000
3FFE03FFE000
1FFC07E3F800
07F80F81FC00
07F01F81FE00
07F03F00FE00
07F07F00FF00
07F07F007F00
07F07F007F80
07F0FF007F80
07F0FF007F80
07FFFF007F80
07FFFF007F80
07F0FF007F80
07F0FF007F80
07F0FF007F00
07F07F007F00
07F07F807F00
07F03F807E00
07F03F80FE00
1FFC1FC0FC00
3FFE0FE3F800
3FFE03FFE000
000000FF8000
ENDCHAR

STARTCHAR afii10097
ENCODING 239
SWIDTH 604 0
DWIDTH 30 0
BBX 32 23 -1 0
BITMAP
003FFFFE
00FFFFFE
01FE1FF8
03FC0FF0
07F80FE0
07F80FE0
07F80FE0
07F80FE0
03F80FE0
01FE0FE0
00FFFFE0
001FFFE0
003F8FE0
007F0FE0
00FE0FE0
01FE0FE0
03FC0FE0
07F80FE0
07F80FE0
0FF01FF0
3FF07FFC
3FE07FFE
3FC07FFE
ENDCHAR

STARTCHAR afii61352
ENCODING 240
SWIDTH 1115 0
DWIDTH 56 0
BBX 55 36 -1 -1
BITMAP
00000000F80000
0FFF0001FE0000
0FFF8003FE0000
03FF8003FE0000
00FFC003FE0000
00FFE007FE0000
007FE007FC0000
007FF007000000
007FF806000000
007FF806003F00
006FFC0600FFC0
006FFC0601F3E0
0067FE0603E1F0
0063FF0607C0F8
0063FF0607C0F8
0061FF8607C0FC
0061FFC60FC0FC
0060FFC60FC0FC
00607FE60FC0FC
00607FE60FC0FC
00603FF60FC0FC
00601FFE0FC0FC
00601FFE07C0F8
00600FFE07C0F8
006007FE03E1F0
006007FE01F1E0
006003FE00FFC0
006003FE003F00
006001FE000000
1E6000FE000000
3FE000FE000000
3FE0007E07FFF8
3FE0003E07FFF8
3FC0003E07FFF8
3FC0001E07FFF8
1F00000E000000
ENDCHAR

STARTCHAR afii10071
ENCODING 241
SWIDTH 521 0
DWIDTH 26 0
BBX 26 35 0 -1
BITMAP
03807000
07C0F800
0FE0FC00
0FE1FC00
0FE1FC00
07C0F800
03807000
00000000
00000000
00000000
00000000
007FC000
01FFF000
03E3F800
07C1FC00
0F80FE00
1F80FE00
1F807F00
1F007F00
3FFFFF00
3FFFFF00
3F800000
3F800000
3F800000
3F800000
3FC00000
3FE00000
3FF00200
1FF80F00
1FFE3F00
0FFFFE00
0FFFFC00
07FFF800
01FFE000
007F8000
ENDCHAR

STARTCHAR afii10099
ENCODING 242
SWIDTH 594 0
DWIDTH 30 0
BBX 29 43 0 -9
BITMAP
01F00000
0FF00000
7FF00000
7FF00000
1FF00000
07F00000
07F00000
3FFFFF80
3FFFFF80
07F00000
07F00000
07F00000
07F00000
07F07C00
07F1FF00
07F7FF80
07FFFFC0
07FC3FC0
07F81FC0
07F01FE0
07F01FE0
07F01FE0
07F01FE0
07F01FE0
07F01FE0
07F01FE0
07F01FE0
07F01FE0
07F01FC0
07F01FC0
0FF01FC0
3FFC1F80
7FFE1F80
7FFE1F00
00001F00
00003E00
00003E00
00003C00
00007800
00007000
0000E000
0001C000
00018000
ENDCHAR

STARTCHAR afii10100
ENCODING 243
SWIDTH 542 0
DWIDTH 27 0
BBX 28 36 0 0
BITMAP
0003F800
0007F800
0007F000
000FE000
000FC000
000F8000
001F0000
001E0000
001C0000
00380000
00000000
00000000
00000000
7FFFFFC0
7FFFFFC0
1FF83FC0
0FF007C0
07F003C0
07F001C0
07F001C0
07F000C0
07F00000
07F00000
07F00000
07F00000
07F00000
07F00000
07F00000
07F00000
07F00000
07F00000
07F00000
0FF80000
3FFE0000
7FFF0000
7FFF0000
ENDCHAR

STARTCHAR afii10101
ENCODING 244
SWIDTH 521 0
DWIDTH 26 0
BBX 25 24 1 -1
BITMAP
007FE000
01FFFC00
07F0FC00
0FE03C00
1FC01C00
1FC01C00
3F800C00
3F800C00
7F800000
7F800000
7FFF8000
7FFF8000
7F800000
7F800000
7F800000
3F800000
3F803C00
3F807E00
1FC07E00
0FC0FE00
0FC0FE00
03F3FC00
01FFF800
003FE000
ENDCHAR

STARTCHAR afii10102
ENCODING 245
SWIDTH 458 0
DWIDTH 23 0
BBX 23 24 0 -1
BITMAP
01FF00
07FFE0
0F87E0
1E01E0
3E00F0
3E0070
3F0070
3FE000
3FFC00
3FFF00
1FFFC0
0FFFE0
07FFF0
01FFF8
007FF8
000FF8
3803F8
3C00F8
3C00F8
3E00F0
3F81F0
1FFFE0
07FFC0
00FE00
ENDCHAR

STARTCHAR afii10103
ENCODING 246
SWIDTH 333 0
DWIDTH 17 0
BBX 18 35 -1 0
BITMAP
01C000
07F000
07F000
0FF800
0FF800
0FF800
07F000
07F000
01C000
000000
000000
000000
007800
03F800
3FF800
3FF800
1FF800
0FF800
03F800
03F800
03F800
03F800
03F800
03F800
03F800
03F800
03F800
03F800
03F800
03F800
03F800
07FC00
0FFE00
3FFF80
3FFF80
ENDCHAR

STARTCHAR afii10104
ENCODING 247
SWIDTH 333 0
DWIDTH 17 0
BBX 20 33 -2 0
BITMAP
1C0380
3E07C0
7F0FE0
7F0FE0
7F0FE0
3E07C0
1C0380
000000
000000
000000
001C00
01FC00
0FFC00
1FFC00
1FFC00
07FC00
01FC00
01FC00
01FC00
01FC00
01FC00
01FC00
01FC00
01FC00
01FC00
01FC00
01FC00
01FC00
01FC00
03FE00
07FF00
1FFFC0
1FFFC0
ENDCHAR

STARTCHAR afii10105
ENCODING 248
SWIDTH 313 0
DWIDTH 16 0
BBX 15 44 -1 -9
BITMAP
00E0
03F8
03F8
07FC
07FC
07FC
03F8
01F8
00E0
0000
0000
0000
0078
07F8
3FF8
3FF8
1FF8
07F8
03F8
03F8
03F8
03F8
03F8
03F8
03F8
03F8
03F8
03F8
03F8
03F8
03F8
03F8
03F8
03F8
03F8
03F0
07F0
07E0
0FC0
1F80
3F00
7E00
3C00
3000
ENDCHAR

STARTCHAR afii10106
ENCODING 249
SWIDTH 854 0
DWIDTH 43 0
BBX 43 24 -1 -1
BITMAP
0FFFFFFC0000
0FFFFFFC0000
03F03FF00000
00E01FE00000
00E01FC00000
00E01FC00000
00E01FC00000
00E01FC00000
00E01FC00000
00E01FC00000
00E01FFFF800
00E01FFFFE00
00E01FC0FF00
00E01FC07F80
00E01FC03FC0
00E01FC03FC0
00E01FC03FC0
00E01FC03FC0
1DC01FC03FC0
3FC01FC07F80
3FC03FE1FF00
3F81FFFFFE00
3F81FFFFF800
1F0000000000
ENDCHAR

STARTCHAR afii10107
ENCODING 250
SWIDTH 854 0
DWIDTH 43 0
BBX 43 23 -1 0
BITMAP
3FFC7FFC0000
3FFC7FFC0000
3FFC7FFC0000
0FF00FF00000
07E00FE00000
07E00FE00000
07E00FE00000
07E00FE00000
07E00FE00000
07E00FE00000
07FFFFFFF800
07FFFFFFFE00
07E00FE0FF00
07E00FE07F80
07E00FE03FC0
07E00FE03FC0
07E00FE03FC0
07E00FE03FC0
07E00FE03FC0
0FF00FE07F80
1FF81FE1FF00
3FFC7FFFFE00
3FFC7FFFF800
ENDCHAR

STARTCHAR afii10108
ENCODING 251
SWIDTH 625 0
DWIDTH 31 0
BBX 33 34 -1 0
BITMAP
01F0000000
0FF0000000
7FF0000000
7FF0000000
1FF0000000
0FF0000000
07F0000000
07F0000000
07F0000000
7FFFFFC000
7FFFFFC000
07F0000000
07F0000000
07F0000000
07F0000000
07F07F0000
07F1FFC000
07F3FFE000
07FFFFE000
07FE1FF000
07F80FF000
07F007F000
07F007F000
07F007F000
07F007F000
07F007F000
07F007F000
07F007F000
07F007F000
07F007F000
0FF80FF800
1FFC3FFC00
7FFE3FFE00
7FFE3FFE00
ENDCHAR

STARTCHAR afii10109
ENCODING 252
SWIDTH 604 0
DWIDTH 30 0
BBX 32 35 0 0
BITMAP
0000FF00
0000FF00
0001FE00
0001FC00
0001F800
0003F000
0003E000
0007C000
00070000
00000000
00000000
00000000
7FFF01F0
7FFF03F8
1FFE07F8
0FF80FF8
07F00FF8
07F01E00
07F03800
07F03800
07F07000
07F0F000
07FFFC00
07FFFE00
07FFFF00
07F1FF00
07F0FF80
07F07F80
07F07FC0
07F03FC0
07F03FE0
0FF81FF0
3FFE0FF8
7FFF0FFC
7FFF07FC
ENDCHAR

STARTCHAR section
ENCODING 253
SWIDTH 573 0
DWIDTH 29 0
BBX 28 44 1 -9
BITMAP
000FE000
00FFFC00
03FFFF00
07C1FF00
0D80FF80
19807F80
1B803F80
33C01F80
33C00F00
71E00000
71F00000
70F80000
70FC0000
707E0000
783E0000
383F0000
3C1F8000
3C0FC000
1E07E000
1F03F000
0F81F800
07C0FC00
07E07C00
03F03E00
01F81F00
00FC0F80
007E0F80
003F0780
001F83C0
000F83C0
0007C1C0
0003E1C0
0001F1C0
0001F1C0
0000F9C0
1E0079C0
3F003980
3F803980
3F801B00
3FC01B00
3FE03600
1FF87C00
0FFFF000
01FFC000
ENDCHAR

STARTCHAR afii10110
ENCODING 254
SWIDTH 542 0
DWIDTH 27 0
BBX 29 42 -1 -9
BITMAP
01E00F00
03E01F80
03F01F80
03F01F80
03F01F80
01F83F00
00FFFE00
001FF000
00000000
00000000
7FFE1FF0
7FFE1FF0
3FF80FE0
1FF003C0
0FF00380
0FF00380
07F80300
07F80700
03FC0700
01FC0E00
01FE0E00
00FE0C00
00FF1C00
007F9800
007FB800
003FF000
003FF000
001FF000
001FE000
000FE000
0007C000
0007C000
00038000
00038000
00030000
0F070000
1F860000
1FDE0000
1FFC0000
1FFC0000
0FF80000
07E00000
ENDCHAR

STARTCHAR afii10193
ENCODING 255
SWIDTH 612 0
DWIDTH 31 0
BBX 31 31 0 -8
BITMAP
3FFE7FFC
3FFE7FFC
3FF83FF0
0FF01FE0
07F01FC0
07F01FC0
07F01FC0
07F01FC0
07F01FC0
07F01FC0
07F01FC0
07F01FC0
07F01FC0
07F01FC0
07F01FC0
07F01FC0
07F01FC0
07F01FC0
07F01FC0
0FF01FE0
1FFC3FF8
3FFFFFFC
3FFFFFFC
000FE000
000FE000
000FE000
000FE000
000FE000
000FE000
000FE000
000FE000
ENDCHAR
ENDFONT
